<svg xmlns="http://www.w3.org/2000/svg" height="32.321" width="118.622" version="1.1" data-name="Layer 1" id="Layer_1"><defs id="defs4"><style id="style2">.cls-1{fill:#1976d2}</style></defs><path id="path6" d="M42.931 24.851a7.67 7.67 0 0 1-3.91-.91 5.56 5.56 0 0 1-2.25-2.58 9.68 9.68 0 0 1-.75-4v-9.65h2.28v9.05a13.52 13.52 0 0 0 .18 2.23 5.87 5.87 0 0 0 .66 1.93 3.58 3.58 0 0 0 1.42 1.36 5.15 5.15 0 0 0 2.42.5 5.09 5.09 0 0 0 2.42-.5 3.49 3.49 0 0 0 1.37-1.36 5.79 5.79 0 0 0 .67-1.94 13.48 13.48 0 0 0 .18-2.22v-9h2.28v9.67a9.52 9.52 0 0 1-.76 4 5.51 5.51 0 0 1-2.3 2.58 7.63 7.63 0 0 1-3.91.84z"/><path id="path8" d="M52.941 30.321v-17.57h1.68l.38 2.69-.6-.43a5.84 5.84 0 0 1 1.84-1.83 5 5 0 0 1 2.67-.67 4.62 4.62 0 0 1 2.76.82 5.16 5.16 0 0 1 1.77 2.2 7.72 7.72 0 0 1 .61 3.1 7.89 7.89 0 0 1-.58 3.1 4.9 4.9 0 0 1-1.7 2.2 4.73 4.73 0 0 1-2.85.82 5.49 5.49 0 0 1-2.54-.58 3.43 3.43 0 0 1-1.61-1.75l.36-.43v8.33zm5.56-7.49a3 3 0 0 0 2.46-1.11 4.84 4.84 0 0 0 .88-3.09 4.84 4.84 0 0 0-.88-3.09 3 3 0 0 0-2.46-1.11 3.49 3.49 0 0 0-1.77.46 3.31 3.31 0 0 0-1.27 1.39 5.12 5.12 0 0 0-.48 2.35 5.23 5.23 0 0 0 .48 2.4 3.11 3.11 0 0 0 1.31 1.36 3.69 3.69 0 0 0 1.73.44z"/><path id="path10" d="M70.381 24.751a3.27 3.27 0 0 1-1.83-.46 2.9 2.9 0 0 1-1-1.18 3.56 3.56 0 0 1-.33-1.5v-6.65h-1.76l.31-2.45h1.4v-2.64l3-.31v2.95h2.6v2.45h-2.63v5.42a5.78 5.78 0 0 0 .11 1.32.67.67 0 0 0 .49.5 5.24 5.24 0 0 0 1.23.1h.8l-.26 2.45z"/><path id="path12" d="M74.971 24.511v-12h2.8l.07 1.27a6.36 6.36 0 0 1 1.29-1 3.45 3.45 0 0 1 1.81-.5 2.89 2.89 0 0 1 .53.05l-.22 2.93a3.18 3.18 0 0 0-.52-.1 4.35 4.35 0 0 0-.51 0 2.82 2.82 0 0 0-1.38.34 2.09 2.09 0 0 0-.88.86v8.18z"/><path id="path14" d="M85.581 24.751a3.61 3.61 0 0 1-1.76-.43 3.23 3.23 0 0 1-1.26-1.27 3.79 3.79 0 0 1-.46-1.94 3.12 3.12 0 0 1 .47-1.75 4.13 4.13 0 0 1 1.25-1.21 7.15 7.15 0 0 1 1.68-.77 13.16 13.16 0 0 1 1.79-.33 14.33 14.33 0 0 1 1.55-.16 2.19 2.19 0 0 0-.53-1.5 2.3 2.3 0 0 0-1.63-.46 5.51 5.51 0 0 0-1.57.22 11.83 11.83 0 0 0-1.72.69l-.26-2.43a11.07 11.07 0 0 1 2.16-.79 9.67 9.67 0 0 1 2.21-.26 5.18 5.18 0 0 1 2.31.48 3.25 3.25 0 0 1 1.5 1.54 6.35 6.35 0 0 1 .53 2.8v3.24a7.7 7.7 0 0 0 .08 1.3.66.66 0 0 0 .32.51 1.46 1.46 0 0 0 .66.11h.38l-.26 2.45h-1.08a4 4 0 0 1-1.2-.17 2.73 2.73 0 0 1-.89-.49 2.47 2.47 0 0 1-.6-.73 3.77 3.77 0 0 1-1.59 1 5.88 5.88 0 0 1-2.08.35zm1.24-2.28a3.08 3.08 0 0 0 1-.21 3 3 0 0 0 1-.65v-2.74a7 7 0 0 0-1.68.28 3.84 3.84 0 0 0-1.4.7 1.47 1.47 0 0 0-.52 1.2 1.4 1.4 0 0 0 .38 1.09 1.8 1.8 0 0 0 1.22.33z"/><path id="path16" d="M100.771 24.751a6.53 6.53 0 0 1-3.46-.85 5.5 5.5 0 0 1-2.11-2.25 6.76 6.76 0 0 1-.72-3.12 6.92 6.92 0 0 1 .71-3.13 5.5 5.5 0 0 1 2.13-2.28 6.74 6.74 0 0 1 3.55-.85 6.83 6.83 0 0 1 1.82.22 6.1 6.1 0 0 1 1.4.55l-.24 2.4a6.78 6.78 0 0 0-1.25-.48 5.27 5.27 0 0 0-1.44-.19 3.42 3.42 0 0 0-2.68 1 4.27 4.27 0 0 0 0 5.41 3.34 3.34 0 0 0 2.62 1.08 4.75 4.75 0 0 0 1.4-.21 6.32 6.32 0 0 0 1.34-.58l.26 2.52a5.84 5.84 0 0 1-1.5.52 8.62 8.62 0 0 1-1.83.24z"/><path id="path18" d="M112.021 24.751a6.89 6.89 0 0 1-3.61-.87 5.57 5.57 0 0 1-2.17-2.3 7.17 7.17 0 0 1 0-6.18 5.49 5.49 0 0 1 2-2.24 5.79 5.79 0 0 1 3.19-.84 5.3 5.3 0 0 1 2.88.71 4.44 4.44 0 0 1 1.73 1.89 5.75 5.75 0 0 1 .58 2.61 7 7 0 0 1-.05.79c0 .27-.08.55-.14.84h-7.75a3.76 3.76 0 0 0 .7 1.8 3.22 3.22 0 0 0 1.3 1 4.4 4.4 0 0 0 1.67.32 6.74 6.74 0 0 0 1.94-.27 8 8 0 0 0 1.66-.71l.14 2.52a8 8 0 0 1-1.7.63 8.6 8.6 0 0 1-2.37.3zm-3.33-7.61h4.85a3 3 0 0 0-.21-1.08 2.06 2.06 0 0 0-.68-.92 2 2 0 0 0-1.28-.37 2.42 2.42 0 0 0-1.81.67 3.3 3.3 0 0 0-.87 1.7z"/><path style="fill:#1976d2" id="path20" d="M2.001 15.651v-6.07a1.38 1.38 0 0 1 .77-1.29c.93-.55 1.87-1.09 2.81-1.63l3.14-1.81 2.05-1.22 2.45-1.41a1.4 1.4 0 0 1 1.51 0l4.19 2.42 3.85 2.23c.84.48 1.67.95 2.5 1.44a1.37 1.37 0 0 1 .7 1.24v12.19a1.36 1.36 0 0 1-.7 1.24l-2.78 1.61-2.52 1.46-3.79 2.2-1.41.8a1.46 1.46 0 0 1-1.57 0l-3.43-2-3.13-1.82-3.12-1.79c-.27-.16-.55-.31-.82-.48a1.41 1.41 0 0 1-.66-1.24zm2.58 0v4.57a1.39 1.39 0 0 0 .75 1.29l4.23 2.45 3.68 2.09a1.42 1.42 0 0 0 1.52 0l4.95-2.87c1-.55 1.91-1.11 2.87-1.65a1.53 1.53 0 0 0 .85-1.45v-9.01a1.46 1.46 0 0 0-.73-1.34l-1.35-.68-2.71-1.56-3.87-2.3a2.05 2.05 0 0 0-.43-.18 1.49 1.49 0 0 0-1.14.22l-3.55 2.05c-1.4.81-2.79 1.63-4.2 2.42a1.56 1.56 0 0 0-.86 1.49c0 1.49-.01 2.98-.01 4.47z" class="cls-1"/><path style="fill:#1976d2" id="path22" d="M12.001 22.651a1 1 0 0 1-.95-.68l-1.77-5.33h-5.75a1 1 0 0 1 0-2h6.47a1 1 0 0 1 .95.69l1.05 3.16 3.05-9.17a1 1 0 0 1 1.9 0l1.82 5.32h5.67a1 1 0 0 1 0 2h-6.43a1 1 0 0 1-.95-.68l-1.06-3.16-3.05 9.17a1 1 0 0 1-.95.68z" class="cls-1"/></svg>