<svg xmlns="http://www.w3.org/2000/svg" height="31.28" width="27.972" version="1.1" data-name="Layer 1" id="Layer_1"><defs id="defs4"><style id="style2">.cls-1{fill:#1976d2}</style></defs><path style="fill:#1976d2" id="path20" d="M2.001 15.651v-6.07a1.38 1.38 0 0 1 .77-1.29c.93-.55 1.87-1.09 2.81-1.63l3.14-1.81 2.05-1.22 2.45-1.41a1.4 1.4 0 0 1 1.51 0l4.19 2.42 3.85 2.23c.84.48 1.67.95 2.5 1.44a1.37 1.37 0 0 1 .7 1.24v12.19a1.36 1.36 0 0 1-.7 1.24l-2.78 1.61-2.52 1.46-3.79 2.2-1.41.8a1.46 1.46 0 0 1-1.57 0l-3.43-2-3.13-1.82-3.12-1.79c-.27-.16-.55-.31-.82-.48a1.41 1.41 0 0 1-.66-1.24zm2.58 0v4.57a1.39 1.39 0 0 0 .75 1.29l4.23 2.45 3.68 2.09a1.42 1.42 0 0 0 1.52 0l4.95-2.87c1-.55 1.91-1.11 2.87-1.65a1.53 1.53 0 0 0 .85-1.45v-9.01a1.46 1.46 0 0 0-.73-1.34l-1.35-.68-2.71-1.56-3.87-2.3a2.05 2.05 0 0 0-.43-.18 1.49 1.49 0 0 0-1.14.22l-3.55 2.05c-1.4.81-2.79 1.63-4.2 2.42a1.56 1.56 0 0 0-.86 1.49c0 1.49-.01 2.98-.01 4.47z" class="cls-1"/><path style="fill:#1976d2" id="path22" d="M12.001 22.651a1 1 0 0 1-.95-.68l-1.77-5.33h-5.75a1 1 0 0 1 0-2h6.47a1 1 0 0 1 .95.69l1.05 3.16 3.05-9.17a1 1 0 0 1 1.9 0l1.82 5.32h5.67a1 1 0 0 1 0 2h-6.43a1 1 0 0 1-.95-.68l-1.06-3.16-3.05 9.17a1 1 0 0 1-.95.68z" class="cls-1"/></svg>