<svg xmlns="http://www.w3.org/2000/svg" xmlns:xlink="http://www.w3.org/1999/xlink" contentStyleType="text/css" height="281px" preserveAspectRatio="none" style="width:502px;height:281px;background:#FFFFFF;" version="1.1" viewBox="0 0 502 281" width="502px" zoomAndPan="magnify"><defs/><g><!--cluster 1ce5872ce443aeaf841065c64a479aa5--><g id="cluster_1ce5872ce443aeaf841065c64a479aa5"><path d="M395.5,6 L453.5,6 A3.75,3.75 0 0 1 456,8.5 L463,28.2969 L492.5,28.2969 A2.5,2.5 0 0 1 495,30.7969 L495,133.39 A2.5,2.5 0 0 1 492.5,135.89 L395.5,135.89 A2.5,2.5 0 0 1 393,133.39 L393,8.5 A2.5,2.5 0 0 1 395.5,6 " fill="none" style="stroke:#000000;stroke-width:1.5;"/><line style="stroke:#000000;stroke-width:1.5;" x1="393" x2="463" y1="28.2969" y2="28.2969"/><text fill="#000000" font-family="sans-serif" font-size="14" font-weight="bold" lengthAdjust="spacing" textLength="57" x="397" y="20.9951">mysite/</text></g><!--cluster 31fa5ea819fcafc456d106e1c66bf665--><g id="cluster_31fa5ea819fcafc456d106e1c66bf665"><path d="M8.5,6 L66.5,6 A3.75,3.75 0 0 1 69,8.5 L76,28.2969 L366.5,28.2969 A2.5,2.5 0 0 1 369,30.7969 L369,272.28 A2.5,2.5 0 0 1 366.5,274.78 L8.5,274.78 A2.5,2.5 0 0 1 6,272.28 L6,8.5 A2.5,2.5 0 0 1 8.5,6 " fill="none" style="stroke:#000000;stroke-width:1.5;"/><line style="stroke:#000000;stroke-width:1.5;" x1="6" x2="76" y1="28.2969" y2="28.2969"/><text fill="#000000" font-family="sans-serif" font-size="14" font-weight="bold" lengthAdjust="spacing" textLength="57" x="10" y="20.9951">myapp/</text></g><!--entity 4a65f60c0de8f532dd1719e8a2f57789--><g id="elem_4a65f60c0de8f532dd1719e8a2f57789"><rect fill="#F1F1F1" height="78.8906" rx="2.5" ry="2.5" style="stroke:#181818;stroke-width:0.5;" width="70" x="409" y="41"/><rect fill="#F1F1F1" height="10" style="stroke:#181818;stroke-width:0.5;" width="15" x="459" y="46"/><rect fill="#F1F1F1" height="2" style="stroke:#181818;stroke-width:0.5;" width="4" x="457" y="48"/><rect fill="#F1F1F1" height="2" style="stroke:#181818;stroke-width:0.5;" width="4" x="457" y="52"/><text fill="#000000" font-family="sans-serif" font-size="14" font-weight="bold" lengthAdjust="spacing" textLength="30" x="424" y="73.9951">urls</text><text fill="#000000" font-family="sans-serif" font-size="14" lengthAdjust="spacing" textLength="4" x="424" y="90.292">&#160;</text><text fill="#000000" font-family="sans-serif" font-size="14" lengthAdjust="spacing" textLength="4" x="424" y="106.5889">&#160;</text></g><!--entity d8bb4544d5a6537b13fb7537ba954bf2--><g id="elem_d8bb4544d5a6537b13fb7537ba954bf2"><rect fill="#F1F1F1" height="78.8906" rx="2.5" ry="2.5" style="stroke:#181818;stroke-width:0.5;" width="70" x="26" y="41"/><rect fill="#F1F1F1" height="10" style="stroke:#181818;stroke-width:0.5;" width="15" x="76" y="46"/><rect fill="#F1F1F1" height="2" style="stroke:#181818;stroke-width:0.5;" width="4" x="74" y="48"/><rect fill="#F1F1F1" height="2" style="stroke:#181818;stroke-width:0.5;" width="4" x="74" y="52"/><text fill="#000000" font-family="sans-serif" font-size="14" font-weight="bold" lengthAdjust="spacing" textLength="30" x="41" y="73.9951">urls</text><text fill="#000000" font-family="sans-serif" font-size="14" lengthAdjust="spacing" textLength="4" x="41" y="90.292">&#160;</text><text fill="#000000" font-family="sans-serif" font-size="14" lengthAdjust="spacing" textLength="4" x="41" y="106.5889">&#160;</text></g><!--entity 527954a1468b3eda268b1917a6f2c176--><g id="elem_527954a1468b3eda268b1917a6f2c176"><rect fill="#F1F1F1" height="78.8906" rx="2.5" ry="2.5" style="stroke:#181818;stroke-width:0.5;" width="86" x="131" y="41"/><rect fill="#F1F1F1" height="10" style="stroke:#181818;stroke-width:0.5;" width="15" x="197" y="46"/><rect fill="#F1F1F1" height="2" style="stroke:#181818;stroke-width:0.5;" width="4" x="195" y="48"/><rect fill="#F1F1F1" height="2" style="stroke:#181818;stroke-width:0.5;" width="4" x="195" y="52"/><text fill="#000000" font-family="sans-serif" font-size="14" font-weight="bold" lengthAdjust="spacing" textLength="46" x="146" y="73.9951">views</text><text fill="#000000" font-family="sans-serif" font-size="14" lengthAdjust="spacing" textLength="4" x="146" y="90.292">&#160;</text><text fill="#000000" font-family="sans-serif" font-size="14" lengthAdjust="spacing" textLength="4" x="146" y="106.5889">&#160;</text></g><!--entity 4bfd8b75e824854991e54c1800b03ff9--><g id="elem_4bfd8b75e824854991e54c1800b03ff9"><rect fill="#F1F1F1" height="78.8906" rx="2.5" ry="2.5" style="stroke:#181818;stroke-width:0.5;" width="80" x="252" y="41"/><rect fill="#F1F1F1" height="10" style="stroke:#181818;stroke-width:0.5;" width="15" x="312" y="46"/><rect fill="#F1F1F1" height="2" style="stroke:#181818;stroke-width:0.5;" width="4" x="310" y="48"/><rect fill="#F1F1F1" height="2" style="stroke:#181818;stroke-width:0.5;" width="4" x="310" y="52"/><text fill="#000000" font-family="sans-serif" font-size="14" font-weight="bold" lengthAdjust="spacing" textLength="40" x="267" y="73.9951">tests</text><text fill="#000000" font-family="sans-serif" font-size="14" lengthAdjust="spacing" textLength="4" x="267" y="90.292">&#160;</text><text fill="#000000" font-family="sans-serif" font-size="14" lengthAdjust="spacing" textLength="4" x="267" y="106.5889">&#160;</text></g><!--entity 098993e6782600b7539954f89dda2215--><g id="elem_098993e6782600b7539954f89dda2215"><rect fill="#F1F1F1" height="78.8906" rx="2.5" ry="2.5" style="stroke:#181818;stroke-width:0.5;" width="78" x="22" y="179.89"/><rect fill="#F1F1F1" height="10" style="stroke:#181818;stroke-width:0.5;" width="15" x="80" y="184.89"/><rect fill="#F1F1F1" height="2" style="stroke:#181818;stroke-width:0.5;" width="4" x="78" y="186.89"/><rect fill="#F1F1F1" height="2" style="stroke:#181818;stroke-width:0.5;" width="4" x="78" y="190.89"/><text fill="#000000" font-family="sans-serif" font-size="14" font-weight="bold" lengthAdjust="spacing" textLength="38" x="37" y="212.8851">apps</text><text fill="#000000" font-family="sans-serif" font-size="14" lengthAdjust="spacing" textLength="4" x="37" y="229.182">&#160;</text><text fill="#000000" font-family="sans-serif" font-size="14" lengthAdjust="spacing" textLength="4" x="37" y="245.4789">&#160;</text></g><!--entity a682e205f19e7117d2defa831757b19d--><g id="elem_a682e205f19e7117d2defa831757b19d"><rect fill="#F1F1F1" height="78.8906" rx="2.5" ry="2.5" style="stroke:#181818;stroke-width:0.5;" width="97" x="134.5" y="179.89"/><rect fill="#F1F1F1" height="10" style="stroke:#181818;stroke-width:0.5;" width="15" x="211.5" y="184.89"/><rect fill="#F1F1F1" height="2" style="stroke:#181818;stroke-width:0.5;" width="4" x="209.5" y="186.89"/><rect fill="#F1F1F1" height="2" style="stroke:#181818;stroke-width:0.5;" width="4" x="209.5" y="190.89"/><text fill="#000000" font-family="sans-serif" font-size="14" font-weight="bold" lengthAdjust="spacing" textLength="57" x="149.5" y="212.8851">models</text><text fill="#000000" font-family="sans-serif" font-size="14" lengthAdjust="spacing" textLength="4" x="149.5" y="229.182">&#160;</text><text fill="#000000" font-family="sans-serif" font-size="14" lengthAdjust="spacing" textLength="4" x="149.5" y="245.4789">&#160;</text></g><!--entity bce6e82669dc604bebc69cf933b3f7d0--><g id="elem_bce6e82669dc604bebc69cf933b3f7d0"><rect fill="#F1F1F1" height="78.8906" rx="2.5" ry="2.5" style="stroke:#181818;stroke-width:0.5;" width="87" x="266.5" y="179.89"/><rect fill="#F1F1F1" height="10" style="stroke:#181818;stroke-width:0.5;" width="15" x="333.5" y="184.89"/><rect fill="#F1F1F1" height="2" style="stroke:#181818;stroke-width:0.5;" width="4" x="331.5" y="186.89"/><rect fill="#F1F1F1" height="2" style="stroke:#181818;stroke-width:0.5;" width="4" x="331.5" y="190.89"/><text fill="#000000" font-family="sans-serif" font-size="14" font-weight="bold" lengthAdjust="spacing" textLength="47" x="281.5" y="212.8851">admin</text><text fill="#000000" font-family="sans-serif" font-size="14" lengthAdjust="spacing" textLength="4" x="281.5" y="229.182">&#160;</text><text fill="#000000" font-family="sans-serif" font-size="14" lengthAdjust="spacing" textLength="4" x="281.5" y="245.4789">&#160;</text></g><!--SRC=[RP7BJWCn34NtynKZbhCXJc8d_XR4madiQaHdMj52GOX_9xH2FCegMVZatEl8ThixBVFBl6w6lTG7sUXuixmUvgFUteno6A4gvkIhnXX4nN84HrWfIamiWkFRK7VBVhVgUXoZ41gvwffcm-1RWmIiMRnXIfd7ks6QdXwtXsaQXk5-UF_fbFt-eWnWWYePsAfOZKYjEnKgKJ6YtygMIuaOOyFk3gb0i98-By8OY_c_ocyIVUeZ0f5o2Th4znCOaf3v2edEvFEifskqFzoz2JNxc34oWsAia9qhBfXTUXxrSBn67MVce9IofpxUet9FOPbRJ-01psXVnJKfbBrwXzOtcW1IyqrDSe24lJQtCxdiclxJjLIb7fQ8MoKNYvPAN8r3AC5ISnThM-RrwsS-0000]--></g></svg>