<?xml version="1.0" encoding="utf-8"?>
<!-- Generator: Adobe Illustrator 24.1.1, SVG Export Plug-In . SVG Version: 6.00 Build 0)  -->
<svg version="1.1" id="Layer_1" xmlns="http://www.w3.org/2000/svg" xmlns:xlink="http://www.w3.org/1999/xlink" x="0px" y="0px"
	 viewBox="0 0 512 512" style="enable-background:new 0 0 512 512;" xml:space="preserve">
<style type="text/css">
	.st0{fill-rule:evenodd;clip-rule:evenodd;}
</style>
<g>
	<path class="st0" d="M260.3,289.1c-2.1-10.7-12.8-19.2-25.6-19.2c-23.5,0-32,19.2-32,40.5c0,19.2,8.5,38.4,32,38.4
		c14.9,0,23.5-10.7,25.6-25.6h25.6c-2.1,29.9-21.3,46.9-51.2,46.9c-36.3,0-57.6-27.7-57.6-59.7c0-34.1,21.3-61.9,57.6-61.9
		c25.6,0,46.9,14.9,49.1,42.7h-23.5V289.1z"/>
	<polygon class="st0" points="300.8,250.7 381.9,250.7 381.9,272 326.4,272 326.4,299.7 375.5,299.7 375.5,318.9 326.4,318.9 
		326.4,365.9 300.8,365.9 	"/>
	<path class="st0" d="M290.1,90.7c64,0,115.2,51.2,117.3,115.2v17.1l14.9,6.4c38.4,14.9,61.9,51.2,61.9,93.9
		c0,55.5-42.7,100.3-96,100.3h-21.3H134.4h-14.9c-53.3-2.1-96-46.9-96-100.3c0-55.5,44.8-102.4,100.3-102.4c6.4,0,12.8,0,19.2,2.1
		l27.7,4.3l2.1-27.7C179.2,137.6,228.3,90.7,290.1,90.7z M290.1,65.1c-74.7,0-136.5,57.6-142.9,132.3c-6.4-2.1-14.9-2.1-21.3-2.1
		C55.5,195.2,0,250.7,0,321.1c0,68.3,53.3,123.7,119.5,125.9h270.9c68.3,0,121.6-55.5,121.6-125.9c0-53.3-32-98.1-78.9-117.3
		C430.9,126.9,366.9,65.1,290.1,65.1z"/>
</g>
</svg>
