<?xml version="1.0" encoding="utf-8"?>
<!-- Svg Vector Icons : http://www.onlinewebfonts.com/icon -->
<!DOCTYPE svg PUBLIC "-//W3C//DTD SVG 1.1//EN" "http://www.w3.org/Graphics/SVG/1.1/DTD/svg11.dtd">
<svg version="1.1" xmlns="http://www.w3.org/2000/svg" xmlns:xlink="http://www.w3.org/1999/xlink" x="0px" y="0px" viewBox="0 0 1000 1000" enable-background="new 0 0 1000 1000" xml:space="preserve">
<metadata> Svg Vector Icons : http://www.onlinewebfonts.com/icon </metadata>
<g><path d="M605.9,744.5V614.8c25.4,15.9,50.7,27.8,76,35.5c25.3,7.8,49.2,11.6,71.6,11.6c27.4,0,49-3.9,64.7-11.6c15.8-7.8,23.7-19.6,23.7-35.5c0-10.1-3.6-18.6-10.7-25.3c-7.2-6.8-16.4-12.7-27.6-17.8c-11.3-5.1-23.6-9.6-36.9-13.7s-26.3-8.6-38.6-13.7c-19.9-7.8-37.4-16.1-52.6-25.1c-15.1-9-27.8-19.3-38.1-31.2c-10.3-11.8-18.1-25.5-23.5-41.1c-5.4-15.5-8.1-34-8.1-55.3c0-29.1,6.1-54.1,18.4-75c12.2-20.9,28.5-38.1,48.9-51.5c20.3-13.4,43.7-23.2,69.9-29.4c26.3-6.3,53.5-9.4,81.9-9.4c22.2,0,44.6,1.8,67.4,5.3c22.8,3.6,45.3,8.7,67.4,15.5V371c-19.5-11.8-40.5-20.7-62.8-26.6c-22.3-5.9-44.2-8.9-65.7-8.9c-10.1,0-19.6,0.9-28.6,2.8c-9,1.8-16.8,4.5-23.7,8.1c-6.8,3.6-12.2,8.1-16.1,13.7c-3.9,5.6-5.9,11.9-5.9,19c0,9.5,3,17.6,8.8,24.3c5.9,6.8,13.5,12.6,23,17.5c9.5,4.9,19.9,9.3,31.5,13.2c11.6,3.9,23,7.8,34.5,11.9c20.5,7.4,39.1,15.5,55.7,24.3c16.6,8.8,30.9,19.1,42.8,30.9c11.9,11.8,21,25.7,27.4,41.6c6.4,15.9,9.5,34.8,9.5,56.8c0,30.7-6.4,57-19.3,78.8c-12.9,21.8-30,39.5-51.3,53.2c-21.3,13.7-45.9,23.7-73.8,29.9c-27.8,6.3-56.8,9.4-86.8,9.4C703.8,770.9,652.8,762.1,605.9,744.5z"/><path d="M10,247.7h245.1v105.1H10V247.7z"/><path d="M10,668.3h245.1v105.1H10V668.3L10,668.3z"/><path d="M79.7,346h105.7v337.5H79.7V346L79.7,346z"/><path d="M290.4,247.7h245.1v105.1H290.4V247.7z"/><path d="M290.4,668.3h245.1v105.1H290.4V668.3L290.4,668.3z"/><path d="M360.1,346h105.7v337.5H360.1V346L360.1,346z"/></g>
</svg>