<svg xmlns="http://www.w3.org/2000/svg" width="378" height="378" viewBox="0 0 378 378">
    <defs>
        <filter id="prefix__a" width="244.9%" height="244.9%" x="-72.4%" y="-72.4%" filterUnits="objectBoundingBox">
            <feOffset dy="32" in="SourceAlpha" result="shadowOffsetOuter1"/>
            <feGaussianBlur in="shadowOffsetOuter1" result="shadowBlurOuter1" stdDeviation="32"/>
            <feColorMatrix in="shadowBlurOuter1" result="shadowMatrixOuter1" values="0 0 0 0 0.275 0 0 0 0 0.275 0 0 0 0 0.969 0 0 0 0.693454983 0"/>
            <feMerge>
                <feMergeNode in="shadowMatrixOuter1"/>
                <feMergeNode in="SourceGraphic"/>
            </feMerge>
        </filter>
    </defs>
    <g fill="none" fill-rule="evenodd" filter="url(#prefix__a)" transform="translate(62 30)">
        <rect width="254" height="254" fill="#FFF" rx="127"/>
        <path fill="#0091FF" d="M204 103.61h-39c-1.352-2.942-2.736-5.758-4.188-8.423-1.867-3.421-3.844-6.6-6.03-9.486-1.64-2.163-3.398-4.161-5.32-5.953-2.878-2.687-6.146-4.911-9.825-6.432-3.674-1.525-7.73-2.321-12.027-2.316-2.69-.002-5.257.388-7.632 1.125-2.08.644-4.007 1.548-5.76 2.637-3.074 1.911-5.604 4.361-7.754 7.017-3.223 3.993-5.65 8.472-7.806 12.85-1.527 3.114-2.912 6.184-4.248 8.98H49v11.977h38.476c-.322.462-.65.924-.987 1.386-1.939 2.67-4.108 5.347-6.412 7.834-3.452 3.733-7.222 7.027-10.855 9.262-1.814 1.12-3.587 1.976-5.242 2.534-1.659.56-3.188.824-4.586.824H49v11.977h10.394c2.59 0 5.119-.433 7.536-1.168 4.235-1.292 8.152-3.478 11.808-6.133 5.475-3.993 10.39-9.08 14.6-14.331 3.275-4.097 6.1-8.281 8.358-12.185.64-1.106 1.241-2.194 1.785-3.246 1.47-2.849 2.826-5.817 4.19-8.73.335-.715.67-1.43 1.007-2.134 1.282-2.683 2.594-5.272 3.982-7.593 1.04-1.74 2.12-3.327 3.241-4.696.84-1.027 1.7-1.93 2.578-2.7 1.32-1.156 2.664-2.007 4.12-2.59 1.46-.58 3.051-.916 5.01-.92 1.692 0 3.217.18 4.634.508 2.475.579 4.645 1.603 6.772 3.148 1.59 1.159 3.142 2.622 4.67 4.404 2.291 2.67 4.514 6.063 6.681 10.063.44.81.876 1.65 1.312 2.51 1.715 3.377 3.408 7.11 5.116 11.139.119.281.24.557.36.837 2.126 4.993 4.287 9.872 6.503 14.488 1.713 3.565 3.455 6.972 5.248 10.17h-6.178c-14.715-.002-26.649 1.805-36.708 4.553-7.543 2.058-14.02 4.638-19.797 7.297-4.333 1.995-8.273 4.03-11.986 5.928-5.572 2.852-10.621 5.372-15.763 7.144-5.151 1.773-10.389 2.85-16.657 2.857H49V180h12.816c4.558 0 8.788-.482 12.755-1.325 3.47-.737 6.736-1.746 9.86-2.925 5.47-2.064 10.5-4.626 15.594-7.23 7.648-3.913 15.445-7.934 25.253-11.022 4.906-1.544 10.319-2.858 16.483-3.791 6.163-.933 13.076-1.486 20.966-1.486H204v-11.977h-21.082c-2.103-3.205-4.231-6.963-6.34-11.11-2.13-4.182-4.246-8.755-6.35-13.548H204V103.61z"/>
    </g>
</svg>
