<?xml version="1.0" standalone="no"?>
<!DOCTYPE svg PUBLIC "-//W3C//DTD SVG 1.0//EN" "http://www.w3.org/TR/2001/REC-SVG-20010904/DTD/svg10.dtd">
<svg xmlns="http://www.w3.org/2000/svg" xmlns:xlink="http://www.w3.org/1999/xlink" id="body_1" width="130" height="183">

<g transform="matrix(0.13 0 0 0.13015649 0 0)">
	<g>
	</g>
    <path d="M491.868 1405.147C 375.358 1400.162 294.35303 1384.667 229.70502 1355.0029C 220.26802 1350.673 221.68402 1353.5709 211.50702 1317.7489C 193.78102 1255.3589 180.30902 1198.8309 165.87602 1126.294C 158.55902 1089.523 155.13303 1074.151 138.23602 1002.29395C 107.91702 873.35394 96.40202 814.06696 89.776024 752.79395C 88.09902 737.27594 91.119026 716.0579 95.86603 710.0239C 98.676025 706.4519 98.732025 697.33295 95.95003 696.6049C 94.32603 696.1809 93.92403 694.80994 93.330025 687.6809C 92.83703 681.7629 92.07002 678.5489 90.748024 676.8689C 89.47302 675.2489 88.86803 672.8579 88.86803 669.4449C 88.86803 666.6769 88.41803 664.1339 87.86803 663.7939C 87.26803 663.4229 86.86803 656.6369 86.86803 646.7939C 86.86803 636.95087 86.468025 630.16486 85.86803 629.7939C 85.31802 629.45386 84.86803 630.07587 84.86803 631.1759C 84.86803 643.5019 76.010025 621.0519 70.84602 595.6389C 57.594025 530.42194 35.846024 465.61493 40.848022 506.2539C 42.60802 520.5509 45.852024 534.60693 55.164024 568.2939C 66.10403 607.86786 71.08803 635.8889 68.86402 645.3139C 65.68402 658.7819 45.138023 577.8979 33.29702 505.29388L33.29702 505.29388L23.27002 443.79388C 17.66202 409.38388 12.446019 383.54187 5.31802 354.8639C -1.81598 326.1579 -1.6139803 321.5009 7.25102 310.21088C 25.52602 286.9369 79.15402 268.84387 84.95102 283.99588C 88.92502 294.3809 77.21402 301.5749 45.36802 308.31287C 17.76702 314.15286 15.21402 318.32788 30.198019 333.12585C 45.178017 347.91986 132.06502 361.14185 234.86801 364.27185C 416.943 369.81485 532.372 371.27484 564.86804 368.44385C 572.843 367.74985 584.18207 366.91885 590.06506 366.59885C 600.7621 366.01584 600.7621 366.01584 600.2751 363.40485C 599.9071 361.42786 600.7591 359.58084 603.7881 355.79385C 605.9881 353.04385 609.27106 348.76886 611.0841 346.29385C 617.2531 337.87485 627.6121 334.66586 631.9091 339.84384C 637.2841 346.31985 632.5371 361.31085 623.6561 365.90384C 619.5551 368.02383 620.7321 368.67685 630.1981 369.53085C 634.69214 369.93686 640.9451 370.54086 644.0961 370.87186C 653.62616 371.87787 660.8911 368.43484 656.88715 364.81186C 648.06714 356.82986 664.6641 340.72885 690.3671 332.33286C 694.2171 331.07486 697.7951 329.65286 698.31714 329.16986C 698.84015 328.68787 699.98114 328.29385 700.8521 328.29385C 704.1301 328.29385 713.5121 321.02185 723.9441 310.39584C 729.88007 304.34885 736.5471 298.25885 738.7591 296.86285C 740.9721 295.46585 743.2671 293.41684 743.8601 292.30887C 745.6591 288.94788 742.1541 289.85388 734.3681 294.76086C 728.6581 298.24988 715.9531 306.67386 703.7321 315.07486C 699.13214 318.23587 694.2421 321.58487 692.8681 322.51685C 691.4931 323.44785 689.5511 324.89484 688.5531 325.73184C 686.3411 327.58585 676.0791 328.03183 670.3681 326.52084C 655.5381 322.59885 654.4731 309.57983 667.1301 286.97086C 672.67114 277.07187 687.9411 256.82587 689.86615 256.82587C 690.3442 256.82587 692.0032 254.94586 693.5521 252.64987C 696.3551 248.49387 698.1311 247.15187 707.0531 242.44487C 713.4701 239.05988 717.2191 238.69186 718.2381 241.34686C 718.8431 242.92386 714.34607 252.82086 709.2801 261.06186C 698.6601 278.33487 697.7341 280.09186 698.7271 281.08487C 700.1431 282.50085 710.95514 276.01486 712.5571 272.78586C 713.22815 271.43286 715.02515 267.63785 716.54913 264.35284C 726.86316 242.12685 751.5471 239.93784 766.73114 259.90283C 770.7451 265.18085 771.8621 265.77783 771.88416 262.65884C 771.95416 252.89885 785.54114 244.89284 802.11816 244.84285C 808.98816 244.82285 809.4402 243.69785 803.4902 241.42584C 795.3572 238.31984 794.8902 236.76584 800.2522 230.63585C 807.6852 222.13885 804.1592 220.48785 790.0372 225.85385C 776.41315 231.03085 763.1692 233.83385 754.1122 233.45586C 749.3022 233.25586 744.2872 233.49686 742.96716 233.99185C 741.6462 234.48685 738.11914 235.09985 735.12915 235.35385C 732.13916 235.60886 729.3281 236.04185 728.8832 236.31586C 728.4392 236.59085 725.8912 236.51785 723.2212 236.15385C 708.3802 234.12686 709.7582 221.25885 728.3432 188.32585C 730.8262 183.92586 734.2532 177.40085 735.9582 173.82585C 737.6632 170.25085 744.59216 156.07585 751.3562 142.32585C 758.1202 128.57585 765.5132 113.27585 767.7842 108.32585C 770.0552 103.375854 773.0282 97.18785 774.3912 94.57585C 775.7532 91.96285 776.86816 89.37285 776.86816 88.820854C 776.86816 88.26785 778.02014 85.45586 779.42816 82.570854C 788.52014 63.95085 803.0182 17.984856 801.25116 13.381851C 800.8932 12.447851 801.1932 11.825851 802.00214 11.825851C 802.74414 11.825851 805.6041 10.325851 808.35913 8.491852C 811.11414 6.6588516 814.5941 4.405852 816.0921 3.4858518C 818.3261 2.1148517 818.7141 1.3058517 818.2491 -1.0161481C 815.66907 -13.914148 839.48706 -5.670148 869.1211 16.592852C 912.7111 49.34085 951.4071 104.67785 983.7411 180.50685C 1012.4761 247.89984 1020.0211 362.19485 1001.38806 447.82587C 988.32404 507.85986 979.43304 599.9919 969.87805 774.32587C 963.79504 885.32086 960.31805 935.4089 955.30005 984.32587C 953.94604 997.5259 952.17505 1017.32587 951.3641 1028.3259C 947.29205 1083.554 941.15405 1134.8309 930.7181 1200.8259C 927.15106 1223.387 926.6501 1228.689 926.37805 1246.8259C 925.3511 1315.209 900.28406 1354.042 852.74805 1360.8899C 848.13806 1361.5538 838.51807 1363.815 831.36804 1365.914C 773.41205 1382.929 711.58203 1391.9519 626.86804 1395.757C 558.168 1398.8419 538.2991 1399.153 503.86804 1397.679L503.86804 1397.679L491.868 1405.147zM255.863 1301.718C 243.526 1251.416 236.31001 1227.535 227.632 1208.2941C 218.34201 1187.6981 216.23201 1184.9701 217.379 1195.0441C 222.653 1241.348 235.36299 1284.291 256.051 1325.701C 266.96 1347.536 266.955 1346.947 255.86299 1301.718zM234.238 1335.0441C 237.83801 1321.609 232.08 1293.3491 215.313 1242.1681C 205.74901 1212.9751 198.702 1187.586 197.37401 1177.545C 196.50401 1170.964 195.6 1170.4081 191.85701 1174.151C 185.852 1180.156 187.667 1192.58 201.19101 1238.03C 204.82901 1250.26 208.32101 1264.2101 208.951 1269.03C 212.651 1297.357 231.294 1346.0281 234.238 1335.0441zM573.31604 1186.1211C 591.56305 1174.035 589.168 1138.8071 569.33606 1127.5751C 551.4841 1117.463 541.89606 1139.498 549.4761 1173.218C 552.8761 1188.344 562.2781 1193.432 573.3161 1186.121zM519.52905 1183.4572C 533.13605 1176.4801 537.655 1153.2002 529.129 1134.0022C 520.724 1115.0752 503.86203 1124.6672 500.82404 1150.1042C 500.38403 1153.7843 499.34705 1161.1143 498.51804 1166.3953C 495.54803 1185.3253 503.42004 1191.7173 519.52905 1183.4573zM188.42905 1148.6511C 190.61005 1131.1931 186.08604 1105.9681 171.44905 1053.9811C 167.29805 1039.233 162.51105 1020.1081 160.81206 1011.4811C 155.25606 983.27106 146.84506 969.5251 150.90805 995.29407C 152.88005 1007.80304 164.01205 1064.885 166.41106 1074.7941C 167.74306 1080.2941 169.99405 1094.1681 171.41206 1105.624C 174.94406 1134.154 178.04207 1145.459 184.13507 1152.0441C 187.15508 1155.3081 187.64507 1154.92 188.42908 1148.6511zM419.86603 1052.1611C 496.04004 1034.7062 520.603 939.44916 460.48004 894.6561C 421.71204 865.77313 397.43405 863.67413 336.86804 883.9691C 324.49304 888.1161 313.35205 892.14813 312.11105 892.92914C 307.69705 895.7061 300.86905 905.55414 300.86905 909.1431C 300.86905 910.98615 299.10104 916.87415 296.94205 922.2301C 268.33105 993.19507 341.17606 1070.1931 419.86606 1052.1611zM323.36804 997.64716C 293.40204 993.1722 286.94403 967.65717 309.88004 944.3622C 326.54202 927.4402 345.94302 925.97516 360.18604 940.5632C 388.36804 969.4302 366.05704 1004.02216 323.36804 997.64716zM703.30005 1038.1372C 755.624 1029.3472 788.43207 969.19324 766.8561 921.6072C 716.33307 810.1822 534.8871 863.70917 574.68005 978.29816C 591.69305 1027.2911 638.42804 1049.0342 703.30005 1038.1361zM601.36804 991.8932C 578.04504 986.1502 570.47906 964.8362 582.97705 940.0782C 598.60205 909.1242 632.03503 909.4902 648.52905 940.7942C 658.491 959.7012 656.23303 966.0022 640.07806 964.3742C 625.54803 962.9082 620.78107 964.9852 627.88403 969.6862C 633.06006 973.1112 639.679 979.0722 640.95605 981.4582C 644.94604 988.9132 618.0541 996.0012 601.36804 991.8932zM355.486 578.46C 359.396 577.892 362.171 576.546 367.248 572.755C 370.90298 570.025 376.69897 565.73303 380.12997 563.215C 411.06097 540.515 421.00998 532.56 432.36798 521.448C 436.218 517.68097 447.468 507.533 457.36798 498.896C 467.26797 490.259 477.21497 481.52798 479.47397 479.49298C 481.73196 477.45798 485.78198 473.843 488.47397 471.46097C 496.91898 463.98596 511.87296 450.31696 523.368 439.56497C 536.86096 426.94397 566.02795 397.44397 565.82495 396.623C 565.34094 394.65997 556.738 393.01797 546.3679 392.909C 535.6019 392.79498 535.36993 392.745 535.4499 390.51898C 535.55786 387.503 535.6839 387.51898 506.3679 386.84198C 271.8479 381.42697 114.704895 373.33997 29.772888 362.31598C 19.880888 361.03198 18.86789 361.063 18.86789 362.65198C 18.86789 365.43198 26.96489 373.12396 33.36389 376.42297C 41.417892 380.57397 41.53889 382.39297 33.855892 383.79297C 25.619892 385.29297 25.867893 384.32098 29.101892 402.41696C 42.07389 475.01297 61.14589 491.44696 101.40889 464.72195C 124.56489 449.35196 272.9439 433.43195 370.86792 435.81195C 387.67593 436.21994 399.26492 436.04596 404.86792 435.29996C 409.5429 434.67697 415.93292 433.93195 419.06693 433.64395C 422.20193 433.35596 425.2939 432.48395 425.93893 431.70694C 426.58493 430.92892 428.82895 430.29294 430.92493 430.29294C 433.0219 430.29294 436.0049 429.77295 437.55292 429.13693C 448.15292 424.78293 528.8679 423.11093 528.8679 427.24493C 528.8679 427.97095 524.7149 431.92892 515.0799 440.38693C 512.8289 442.36392 501.1719 451.35895 489.17688 460.37692C 470.98788 474.0519 458.83887 483.4919 453.36688 488.20193C 452.8169 488.67493 446.8039 494.98492 440.00287 502.22192C 412.03287 531.98895 382.82587 552.47394 357.72388 559.9279C 354.21387 560.97095 352.79086 561.9939 351.9889 564.0539C 350.6369 567.52386 346.2749 575.2859 344.9079 576.6539C 342.6319 578.9289 343.7449 580.5439 347.1179 579.8619C 348.90488 579.4989 352.6709 578.8689 355.4859 578.4599zM403.36798 569.293C 403.744 568.68304 411.326 568.293 422.771 568.293C 444.938 568.293 462.86798 567.33105 462.86798 566.14105C 462.86798 565.67505 462.22498 565.293 461.439 565.293C 457.18 565.293 455.85 560.32 458.538 554.44403C 461.872 547.15405 464.982 543.64905 499.048 508.79303C 512.488 495.04303 525.302 481.54303 527.525 478.79303C 546.758 455.00302 562.26904 432.36102 560.52704 430.61804C 559.775 429.86804 545.01306 443.68204 542.757 447.24805C 541.872 448.64804 537.59705 453.30505 533.257 457.59705C 524.75104 466.01105 524.257 466.56006 508.308 485.29303C 502.45502 492.16803 496.39203 499.14304 494.833 500.79303C 493.275 502.44302 489.777 506.26804 487.06 509.29303C 478.12 519.24603 461.707 535.13904 454.36798 540.95C 437.882 554.002 412.416 566.865 404.36798 566.206C 401.65198 565.984 395.86798 567.376 395.86798 568.251C 395.86798 570.36096 402.16797 571.235 403.36798 569.29297zM632.74 565.35803C 634.014 563.44104 635.087 563.29205 647.74 563.278C 666.31 563.258 676.248 559.393 669.352 554.874C 667.946 553.95404 666.864 552.28 666.858 551.02C 666.824 543.27 661.099 536.872 657.93097 541.043C 648.71796 553.17206 646.99896 554.965 642.355 557.293C 612.19995 572.40906 594.29095 537.651 609.368 493.27002C 622.371 454.993 623.411 451.531 626.485 436.29303C 627.974 428.91302 626.595 414.40103 624.368 414.02502C 619.67096 413.23102 597.97595 481.92102 588.909 526.293C 585.005 545.4 584.923 545.60004 579.656 548.93506C 561.156 560.65106 553.735 555.23804 559.58 534.293C 561.41003 527.73804 567.271 511.50104 569.955 505.55304C 571.007 503.22305 571.86804 501.06003 571.86804 500.74905C 571.86804 500.43805 572.79205 498.07007 573.92206 495.48904C 587.08203 465.41403 590.18005 454.45505 585.86804 453.21304C 573.43506 449.63004 556.35004 459.18005 548.89105 473.88104C 548.07806 475.48303 546.39905 478.45905 545.15906 480.49405C 542.33606 485.12805 537.42206 494.23404 529.07904 510.29306C 517.70905 532.17804 515.20404 536.3511 507.53903 546.16406C 499.41403 556.56604 490.96204 561.65405 477.36804 564.3271C 467.65103 566.23706 467.81003 566.7311 478.36804 567.4151C 505.79004 569.1921 631.3041 567.5191 632.74005 565.3581zM520.073 560.24506C 515.792 558.52704 513.595 549.5851 515.982 543.59C 520.697 531.747 527.034 521.89 548.958 492.29303C 553.644 485.96802 559.184 478.20602 561.27 475.04303C 572.393 458.18002 574.057 487.98502 563.378 512.793C 551.968 539.299 533.231 561.92804 523.272 561.23004C 522.77496 561.19507 521.33496 560.752 520.073 560.24506zM785.657 556.215C 791.227 555.59503 796.04095 554.53 796.94696 553.715C 798.037 552.73206 801.03296 552.293 806.63696 552.293C 811.09894 552.293 815.02795 551.843 815.36694 551.293C 815.707 550.74304 816.80695 550.293 817.80994 550.293C 819.4799 550.293 821.43396 546.525 820.3339 545.426C 820.0839 545.176 817.5139 545.5 814.6239 546.146C 809.5119 547.286 805.1239 547.962 795.8679 549.036C 783.5839 550.46204 749.3399 549.506 739.9129 547.474C 736.6029 546.761 736.4119 546.474 735.3549 540.628C 733.44794 530.083 727.8609 525.13 720.7049 527.638C 713.6309 530.12 713.2309 531.421 718.8549 533.671C 722.9369 535.304 726.8679 538.536 726.8679 540.258C 726.8679 542.088 720.65594 548.29297 718.82294 548.29297C 717.8129 548.29297 716.7349 548.699 716.4279 549.19495C 715.7519 550.2899 703.9939 553.93494 698.1179 554.871C 687.0709 556.631 697.1129 557.29297 734.9079 557.29297C 757.5939 557.29297 780.2889 556.811 785.6579 556.214zM850.64496 501.83502C 856.03394 500.91904 861.868 495.751 861.868 491.894C 861.868 489.00803 859.592 487.483 857.605 489.03702C 856.36896 490.00403 848.701 492.02402 845.868 492.13C 845.04297 492.16 842.47 492.492 840.149 492.867C 824.80896 495.34302 782.14197 481.819 762.188 468.155C 759.888 466.581 757.747 465.293 757.428 465.293C 756.495 465.293 746.61896 458.276 743.618 455.48C 733.274 445.846 752.612 444.915 777.868 453.83002C 793.836 459.467 795.937 460.282 800.22595 462.497C 806.842 465.913 807.61194 466.247 814.66693 468.742C 830.9129 474.488 832.2619 473.115 819.36694 463.95502C 800.1649 450.31403 779.73395 441.86203 772.07294 444.39C 763.76794 447.131 744.7949 442.182 726.86896 432.6C 694.76294 415.436 682.618 412.323 693.569 424.066C 708.243 439.80002 727.27496 457.35602 739.272 466.226C 746.732 471.74002 756.90796 478.69302 758.868 479.614C 759.693 480.002 762.393 481.49503 764.868 482.93402C 770.63696 486.28503 789.733 494.86603 794.617 496.30002C 804.162 499.104 808.931 500.23 813.947 500.867C 816.929 501.245 819.919 501.845 820.593 502.199C 822.201 503.046 845.155 502.768 850.645 501.835zM732.868 354.619C 735.34296 354.409 739.393 354.03198 741.868 353.78198C 746.67896 353.29498 761.52795 350.292 771.368 347.81598C 774.66797 346.986 788.84296 344.736 802.868 342.81897C 854.719 335.72897 870.062 329.94897 882.945 312.64798C 888.588 305.06998 888.612 304.098 883.403 294.003C 872.98004 273.801 883.922 267.577 908.36804 279.80298C 916.93805 284.08798 916.86804 284.08798 916.86804 279.85297C 916.86804 276.01096 916.106 275.28696 910.94507 274.22797C 882.84607 268.46396 869.86505 247.21797 884.6191 231.14397C 887.2691 228.25497 887.05206 225.07997 883.2771 211.54396C 881.6141 205.58395 880.6511 205.24097 875.8121 208.89296C 873.9181 210.32196 870.41907 212.34596 868.0381 213.39096C 863.70807 215.29095 863.70807 215.29095 868.1361 219.72096C 882.2561 233.84096 864.4011 251.31696 833.8681 253.26297C 813.8671 254.53697 812.1381 255.15297 821.1851 257.78296C 836.4751 262.22897 838.7611 271.74295 826.0271 277.93295C 814.1671 283.69995 814.6951 284.13995 829.4391 280.77695C 853.0871 275.38394 871.2741 276.16995 873.5641 282.68594C 879.8721 300.63394 867.5871 319.02194 842.8681 328.63095C 836.9541 330.93094 833.4161 332.00595 821.3681 335.16696C 815.2761 336.76596 797.6951 339.45395 797.1161 338.87497C 796.8351 338.59497 795.8561 338.76498 794.9421 339.25497C 794.0271 339.74496 789.69806 340.44098 785.32306 340.80298C 759.71906 342.91998 746.2131 344.70398 717.64307 349.74097C 701.8271 352.52997 699.86804 353.03998 699.86804 354.36697C 699.86804 355.33698 719.49304 356.20697 724.86804 355.47696C 726.793 355.21497 730.39307 354.82895 732.86804 354.61896zM818.21 212.49C 838.203 199.266 851.81305 185.017 854.65 174.34C 855.4 171.51399 856.309 168.47 856.668 167.57399C 857.768 164.83199 854.08704 154.91998 852.773 157.08699C 846.732 167.047 842.187 172.747 833.226 181.59898C 818.354 196.28998 812.935 201.37999 811.129 202.35399C 808.15405 203.95898 792.036 222.20699 790.619 225.57399C 787.827 232.21098 788.731 232.14299 799.543 224.898zM104.86804 286.438C 104.86804 285.417 106.375046 282.60397 108.21804 280.188C 112.84204 274.121 114.86804 269.922 114.86804 266.40298C 114.86804 262.49298 113.53504 262.99597 137.48505 257.878C 191.06905 246.428 214.02005 243.48499 255.04205 242.80399C 471.41806 239.21098 534.92804 237.22598 603.6991 231.90399C 621.1991 230.551 621.1671 230.54199 625.9721 238.12C 636.35913 254.497 606.95013 265.263 561.3681 261.768C 556.9681 261.43 536.0431 261.02402 514.8681 260.865C 476.3681 260.57498 476.3681 260.57498 455.4611 256.365C 424.94208 250.21999 416.0051 250.57599 407.2191 258.291C 403.09808 261.909 404.41608 261.896 394.5381 258.41397C 369.5661 249.61197 338.6721 249.07297 288.8681 256.57098C 272.0931 259.09598 252.5181 261.658 245.3681 262.26398C 208.2191 265.41397 173.3811 271.852 128.6891 283.82498C 110.1091 288.80298 104.8681 289.378 104.8681 286.438z" stroke="none" fill="#F3D71D" fill-rule="nonzero" />
	<g>
	</g>
    <path d="M491.868 1405.147C 375.358 1400.162 294.35303 1384.667 229.70502 1355.0029C 220.26802 1350.673 221.68402 1353.5709 211.50702 1317.7489C 193.78102 1255.3589 180.30902 1198.8309 165.87602 1126.294C 158.55902 1089.523 155.13303 1074.151 138.23602 1002.29395C 107.91702 873.35394 96.40202 814.06696 89.776024 752.79395C 88.09902 737.27594 91.119026 716.0579 95.86603 710.0239C 98.676025 706.4519 98.732025 697.33295 95.95003 696.6049C 94.32603 696.1809 93.92403 694.80994 93.330025 687.6809C 92.83703 681.7629 92.07002 678.5489 90.748024 676.8689C 89.47302 675.2489 88.86803 672.8579 88.86803 669.4449C 88.86803 666.6769 88.41803 664.1339 87.86803 663.7939C 87.26803 663.4229 86.86803 656.6369 86.86803 646.7939C 86.86803 636.95087 86.468025 630.16486 85.86803 629.7939C 85.31802 629.45386 84.86803 630.07587 84.86803 631.1759C 84.86803 643.5019 76.010025 621.0519 70.84602 595.6389C 57.594025 530.42194 35.846024 465.61493 40.848022 506.2539C 42.60802 520.5509 45.852024 534.60693 55.164024 568.2939C 66.10403 607.86786 71.08803 635.8889 68.86402 645.3139C 65.68402 658.7819 45.138023 577.8979 33.29702 505.29388L33.29702 505.29388L23.27002 443.79388C 17.66202 409.38388 12.446019 383.54187 5.31802 354.8639C -1.81598 326.1579 -1.6139803 321.5009 7.25102 310.21088C 25.52602 286.9369 79.15402 268.84387 84.95102 283.99588C 88.92502 294.3809 77.21402 301.5749 45.36802 308.31287C 17.76702 314.15286 15.21402 318.32788 30.198019 333.12585C 45.178017 347.91986 132.06502 361.14185 234.86801 364.27185C 416.943 369.81485 532.372 371.27484 564.86804 368.44385C 572.843 367.74985 584.18207 366.91885 590.06506 366.59885C 600.7621 366.01584 600.7621 366.01584 600.2751 363.40485C 599.9071 361.42786 600.7591 359.58084 603.7881 355.79385C 605.9881 353.04385 609.27106 348.76886 611.0841 346.29385C 617.6371 337.35086 628.1341 334.55386 632.3841 340.61984C 635.1961 344.63486 633.8951 345.78284 630.7951 342.02185C 625.8741 336.05185 618.4171 338.44385 611.3681 348.25284C 604.4081 356.87784 610.7281 362.98685 622.9641 359.46283C 631.6101 356.97083 639.1181 348.12283 639.1181 340.42282C 639.1181 338.5938 639.4501 338.02283 640.12213 338.69482C 642.9711 341.54382 635.9721 354.5638 629.9061 357.70084C 625.8051 359.82083 626.9821 360.47385 636.4481 361.32785C 640.94214 361.73386 647.1951 362.33786 650.3461 362.66885C 659.87616 363.67487 667.1411 360.23184 663.13715 356.60886C 654.31714 348.62686 670.9141 332.52585 696.6171 324.12985C 700.4671 322.87186 704.0451 321.44986 704.56714 320.96686C 705.09015 320.48486 706.23114 320.09085 707.1021 320.09085C 710.37714 320.09085 719.7581 312.82285 730.16113 302.22684C 740.7811 291.40884 745.67114 287.31085 746.71515 288.35483C 747.00916 288.64883 745.53217 290.15482 743.43414 291.70282C 727.9141 303.14783 727.26917 307.55283 742.25214 299.7668C 764.0261 288.4518 773.10815 286.12582 766.0551 293.6708C 756.9981 303.3598 727.0771 317.65082 723.44714 314.0208C 722.68713 313.25983 720.7921 313.9638 716.90216 316.4518C 713.89215 318.3778 706.9712 321.5158 701.52216 323.4258C 682.8312 329.9768 677.9642 332.7098 667.1382 342.73282C 632.5022 374.7998 818.5412 361.45383 920.7532 324.53983C 937.8992 318.34683 941.17316 314.65283 939.7992 303.04782C 937.4372 283.1018 898.4092 258.23782 887.6592 269.8308C 885.09717 272.5928 884.0462 271.8288 886.36816 268.8918C 890.36414 263.8388 901.17017 264.8738 914.61816 271.59882C 923.19214 275.8868 923.11816 275.8868 923.11816 271.62582C 923.11816 267.90384 921.1882 266.15283 916.93414 266.01584C 914.68915 265.94482 905.76215 262.31384 907.4642 262.16583C 907.9292 262.12384 910.8002 262.81482 913.84216 263.69882C 935.46216 269.98383 943.49414 259.13382 933.1122 237.66483C 932.0292 235.42482 928.9192 224.81583 926.2022 214.09082C 911.94324 157.81882 882.99524 97.09382 870.4272 97.09082C 867.4562 97.09082 867.5162 97.23482 862.5602 78.08982C 854.05615 45.232822 847.7812 33.14182 835.65216 26.240822C 809.29614 11.245822 802.8462 -16.009178 828.11816 -5.5951786C 882.3522 16.754822 937.6382 85.13483 977.99115 179.77182C 1006.72614 247.16483 1014.2711 361.45984 995.6381 447.09082C 982.5741 507.12482 973.6831 599.25684 964.1281 773.5908C 958.0451 884.5858 954.5681 934.6738 949.5501 983.5908C 948.1961 996.79083 946.4251 1016.5908 945.61414 1027.5908C 941.5421 1082.8188 935.4041 1134.0958 924.96814 1200.0908C 921.4011 1222.6519 920.90015 1227.9539 920.6281 1246.0908C 919.60114 1314.4739 894.5341 1353.3069 846.9981 1360.1548C 842.3881 1360.8187 832.7681 1363.0798 825.6181 1365.1788C 767.6621 1382.1938 705.8321 1391.2168 621.1181 1395.0219C 552.4181 1398.1068 532.5491 1398.4178 498.1181 1396.9438L498.1181 1396.9438L491.868 1405.147zM255.863 1301.718C 243.526 1251.416 236.31001 1227.535 227.632 1208.2941C 218.34201 1187.6981 216.23201 1184.9701 217.379 1195.0441C 222.653 1241.348 235.36299 1284.291 256.051 1325.701C 266.96 1347.536 266.955 1346.947 255.86299 1301.718zM234.238 1335.0441C 237.83801 1321.609 232.08 1293.3491 215.313 1242.1681C 205.74901 1212.9751 198.702 1187.586 197.37401 1177.545C 196.50401 1170.964 195.6 1170.4081 191.85701 1174.151C 185.852 1180.156 187.667 1192.58 201.19101 1238.03C 204.82901 1250.26 208.32101 1264.2101 208.951 1269.03C 212.651 1297.357 231.294 1346.0281 234.238 1335.0441zM573.31604 1186.1211C 591.56305 1174.035 589.168 1138.8071 569.33606 1127.5751C 551.4841 1117.463 541.89606 1139.498 549.4761 1173.218C 552.8761 1188.344 562.2781 1193.432 573.3161 1186.121zM519.52905 1183.4572C 533.13605 1176.4801 537.655 1153.2002 529.129 1134.0022C 520.724 1115.0752 503.86203 1124.6672 500.82404 1150.1042C 500.38403 1153.7843 499.34705 1161.1143 498.51804 1166.3953C 495.54803 1185.3253 503.42004 1191.7173 519.52905 1183.4573zM188.42905 1148.6511C 190.61005 1131.1931 186.08604 1105.9681 171.44905 1053.9811C 167.29805 1039.233 162.51105 1020.1081 160.81206 1011.4811C 155.25606 983.27106 146.84506 969.5251 150.90805 995.29407C 152.88005 1007.80304 164.01205 1064.885 166.41106 1074.7941C 167.74306 1080.2941 169.99405 1094.1681 171.41206 1105.624C 174.94406 1134.154 178.04207 1145.459 184.13507 1152.0441C 187.15508 1155.3081 187.64507 1154.92 188.42908 1148.6511zM419.86603 1052.1611C 496.04004 1034.7062 520.603 939.44916 460.48004 894.6561C 421.71204 865.77313 397.43405 863.67413 336.86804 883.9691C 324.49304 888.1161 313.35205 892.14813 312.11105 892.92914C 307.69705 895.7061 300.86905 905.55414 300.86905 909.1431C 300.86905 910.98615 299.10104 916.87415 296.94205 922.2301C 268.33105 993.19507 341.17606 1070.1931 419.86606 1052.1611zM323.36804 997.64716C 293.40204 993.1722 286.94403 967.65717 309.88004 944.3622C 326.54202 927.4402 345.94302 925.97516 360.18604 940.5632C 388.36804 969.4302 366.05704 1004.02216 323.36804 997.64716zM703.30005 1038.1372C 755.624 1029.3472 788.43207 969.19324 766.8561 921.6072C 716.33307 810.1822 534.8871 863.70917 574.68005 978.29816C 591.69305 1027.2911 638.42804 1049.0342 703.30005 1038.1361zM601.36804 991.8932C 578.04504 986.1502 570.47906 964.8362 582.97705 940.0782C 598.60205 909.1242 632.03503 909.4902 648.52905 940.7942C 658.491 959.7012 656.23303 966.0022 640.07806 964.3742C 625.54803 962.9082 620.78107 964.9852 627.88403 969.6862C 633.06006 973.1112 639.679 979.0722 640.95605 981.4582C 644.94604 988.9132 618.0541 996.0012 601.36804 991.8932zM355.5 578.459C 359.44 577.88696 362.164 576.562 367.227 572.75397C 370.854 570.02594 376.41898 565.90094 379.594 563.58594C 397.05 550.8629 412.06598 539.43896 417.367 534.84796C 424.243 528.89294 425.867 527.798 425.867 529.113C 425.867 529.628 423.279 532.15295 420.117 534.724C 417.45502 536.911 398.716 550.867 387.966 558.669C 376.441 567.034 376.307 567.49603 385.604 566.836C 398.758 565.901 401.499 565.226 400.82 563.086C 400.134 560.923 404.225 558.816 407.788 559.496C 409.408 559.80597 409.14398 560.06 406.565 560.675C 404.755 561.105 403.441 561.961 403.642 562.575C 404.13998 564.09503 409.338 564.60803 410.676 563.271C 411.37 562.577 418.401 562.193 430.398 562.193C 452.43802 562.193 470.354 561.22797 470.354 560.041C 470.354 559.575 469.711 559.193 468.92502 559.193C 467.324 559.193 464.354 556.548 464.354 555.122C 464.354 554.611 465.254 555.093 466.354 556.193C 467.775 557.614 469.687 558.193 472.961 558.193C 476.489 558.193 477.443 558.519 477.033 559.586C 475.568 563.404 637.641 563.04 640.22595 559.22C 641.49097 557.352 642.66296 557.19196 655.22595 557.178C 673.79596 557.15796 683.73395 553.29297 676.83795 548.774C 675.43195 547.854 674.35 546.18 674.34393 544.92C 674.3389 543.695 673.23395 540.32996 671.88995 537.443C 670.54596 534.55597 669.84894 532.193 670.33997 532.193C 671.62695 532.193 672.38696 533.68 674.87897 541.079C 677.029 547.466 677.219 547.688 681.47394 548.779C 685.73395 549.872 685.77094 549.917 682.85394 550.399C 681.2039 550.67096 683.90393 550.902 688.85394 550.912C 695.17194 550.924 696.8109 550.70996 694.35394 550.193C 692.42896 549.78796 691.15894 549.397 691.5319 549.325C 691.90393 549.252 695.71094 548.706 699.9899 548.111C 713.49994 546.231 723.16595 542.664 723.5399 539.42004C 723.82294 536.96 724.2429 536.69305 727.8379 536.69305C 734.8179 536.69305 733.0879 529.9841 725.7519 528.60803C 722.1109 527.92505 719.8119 525.879 720.8319 524.23004C 721.8219 522.62604 727.3369 520.01404 728.67194 520.51605C 729.3449 520.76904 728.9929 521.25604 727.85394 521.64905C 721.5739 523.81104 721.13196 525.48706 726.29895 527.5541C 730.41693 529.2021 734.35394 532.43005 734.35394 534.1581C 734.35394 535.9881 728.14197 542.19305 726.30896 542.19305C 725.29895 542.19305 724.22095 542.59906 723.91394 543.09503C 723.2379 544.19 711.4799 547.835 705.60394 548.77106C 694.55695 550.53107 704.59894 551.19305 742.3939 551.19305C 784.1709 551.19305 801.57294 550.189 804.4329 547.6141C 805.52295 546.6321 808.5189 546.19305 814.1229 546.19305C 818.5849 546.19305 822.5139 545.74304 822.8529 545.19305C 823.19293 544.64307 824.2929 544.19305 825.2959 544.19305C 826.9659 544.19305 828.9199 540.42505 827.8199 539.32605C 827.5699 539.07605 824.9999 539.36707 822.10986 539.973C 811.5859 542.17804 810.3539 542.33704 810.3539 541.489C 810.3539 541.015 813.5649 540.033 817.4909 539.307C 852.3969 532.851 879.1719 513.309 890.3939 486.09702C 891.9509 482.319 896.4759 473.25803 900.44794 465.96103C 924.74097 421.33502 938.9279 382.773 935.3029 371.22403C 934.8659 369.83203 934.2429 367.084 933.9179 365.11703C 932.7959 358.31403 932.2379 358.09003 920.3539 359.67102C 867.2209 366.74103 763.96985 377.30902 700.8539 382.139C 656.5289 385.531 596.2289 389.17 584.07385 389.187C 579.2938 389.19302 579.2938 389.19302 561.61084 406.147C 539.48285 427.361 537.62585 427.452 558.76184 406.285C 567.45984 397.575 574.18787 390.22202 573.71484 389.945C 570.48785 388.058 558.49585 386.181 551.19684 386.42C 543.0858 386.68503 542.8568 386.63 542.93585 384.42C 543.0438 381.403 543.16986 381.419 513.8539 380.742C 279.33386 375.327 122.19089 367.24 37.25888 356.216C 27.36688 354.932 26.353882 354.963 26.353882 356.552C 26.353882 359.332 34.450882 367.024 40.849884 370.323C 48.903885 374.474 49.024883 376.293 41.341885 377.693C 33.105885 379.193 33.353886 378.221 36.587883 396.317C 49.559883 468.913 68.63188 485.347 108.89488 458.62198C 132.05089 443.25198 280.42987 427.33197 378.35388 429.71198C 395.1619 430.11996 406.7509 429.94598 412.35388 429.19998C 417.02887 428.577 423.41888 427.83197 426.5529 427.54398C 429.6879 427.25598 432.77988 426.38397 433.4249 425.60696C 434.0709 424.82895 436.3149 424.19296 438.4109 424.19296C 440.50787 424.19296 443.49088 423.67297 445.03888 423.03696C 455.6389 418.68295 536.3539 417.01096 536.3539 421.14496C 536.3539 421.87097 532.20087 425.82895 522.56586 434.28696C 520.3149 436.26395 508.65787 445.25897 496.66284 454.27695C 478.47385 467.95193 466.32483 477.39194 460.85284 482.10196C 460.30286 482.57495 454.28986 488.88495 447.48883 496.12195C 419.51883 525.889 390.31183 546.37396 365.20984 553.82794C 361.69983 554.871 360.27682 555.8939 359.47485 557.9539C 358.12286 561.4239 353.76086 569.1859 352.39386 570.5539C 350.11786 572.8289 351.23087 574.4439 354.60385 573.7619C 356.39084 573.3989 360.16385 572.7679 362.98685 572.3579zM104.868 286.438C 104.868 285.417 106.375 282.60397 108.217995 280.188C 112.841995 274.121 114.868 269.922 114.868 266.40298C 114.868 262.49298 113.534996 262.99597 137.485 257.878C 191.069 246.428 214.02 243.48499 255.04199 242.80399C 471.418 239.21098 534.928 237.22598 603.699 231.90399C 621.199 230.551 621.167 230.54199 625.972 238.12C 636.359 254.497 606.95 265.263 561.368 261.768C 556.96796 261.43 536.04297 261.02402 514.868 260.865C 476.36798 260.57498 476.36798 260.57498 455.46097 256.365C 424.94196 250.21999 416.00497 250.57599 407.21896 258.291C 403.09796 261.909 404.41595 261.896 394.53796 258.41397C 369.56598 249.61197 338.67197 249.07297 288.86798 256.57098C 272.093 259.09598 252.51797 261.658 245.36798 262.26398C 208.21898 265.41397 173.38098 271.852 128.68898 283.82498C 110.10898 288.80298 104.86798 289.378 104.86798 286.438z" stroke="none" fill="#D5AD2D" fill-rule="nonzero" />
	<g>
	</g>
    <path d="M491.868 1405.147C 375.358 1400.162 294.35303 1384.667 229.70502 1355.0029C 220.26802 1350.673 221.68402 1353.5709 211.50702 1317.7489C 193.78102 1255.3589 180.30902 1198.8309 165.87602 1126.294C 158.55902 1089.523 155.13303 1074.151 138.23602 1002.29395C 107.91702 873.35394 96.40202 814.06696 89.776024 752.79395C 88.09902 737.27594 91.119026 716.0579 95.86603 710.0239C 98.676025 706.4519 98.732025 697.33295 95.95003 696.6049C 94.32603 696.1809 93.92403 694.80994 93.330025 687.6809C 92.83703 681.7629 92.07002 678.5489 90.748024 676.8689C 89.47302 675.2489 88.86803 672.8579 88.86803 669.4449C 88.86803 666.6769 88.41803 664.1339 87.86803 663.7939C 87.26803 663.4229 86.86803 656.6369 86.86803 646.7939C 86.86803 636.95087 86.468025 630.16486 85.86803 629.7939C 85.31802 629.45386 84.86803 630.07587 84.86803 631.1759C 84.86803 643.5019 76.010025 621.0519 70.84602 595.6389C 57.594025 530.42194 35.846024 465.61493 40.848022 506.2539C 42.60802 520.5509 45.852024 534.60693 55.164024 568.2939C 66.10403 607.86786 71.08803 635.8889 68.86402 645.3139C 65.68402 658.7819 45.138023 577.8979 33.29702 505.29388L33.29702 505.29388L23.27002 443.79388C 17.66202 409.38388 12.446019 383.54187 5.31802 354.8639C -1.81598 326.1579 -1.6139803 321.5009 7.25102 310.21088C 25.52602 286.9369 79.15402 268.84387 84.95102 283.99588C 88.92502 294.3809 77.21402 301.5749 45.36802 308.31287C 17.76702 314.15286 15.21402 318.32788 30.198019 333.12585C 45.178017 347.91986 132.06502 361.14185 234.86801 364.27185C 416.786 369.80984 532.308 371.27286 564.86804 368.44986C 597.03 365.66187 598.965 365.67987 604.34204 368.83185C 609.13605 371.64084 609.13605 371.64084 615.252 370.12186C 621.372 368.60187 622.839 368.63986 644.169 370.87686C 648.812 371.36386 651.046 371.04785 655.366 369.29486C 660.158 367.34985 661.189 367.24585 664.56604 368.36887C 671.572 370.69885 738.34705 370.02686 761.86804 367.38885C 827.27405 360.05484 904.69806 342.19586 930.44507 328.50485C 933.4751 326.89285 953.38806 322.06586 966.36804 319.79684C 978.83105 317.61884 986.8851 315.69785 992.86804 313.47784C 998.36804 311.43784 998.36804 311.43784 999.01404 320.11584C 1001.887 358.69785 997.59204 420.95886 989.86206 452.79382C 987.8351 461.14383 985.44904 474.46683 981.89404 497.29382C 980.73804 504.7188 979.2991 511.77682 978.69604 512.97784C 978.093 514.1799 977.87305 516.20386 978.20605 517.4758C 978.538 518.74884 977.70306 528.79083 976.3511 539.7918C 969.2331 597.6748 964.7511 656.3798 957.87805 781.7938C 951.79504 892.7888 948.31805 942.87683 943.30005 991.7938C 941.94604 1004.99384 940.17505 1024.7938 939.3641 1035.7938C 935.29205 1091.0219 929.15405 1142.2988 918.7181 1208.2938C 915.15106 1230.8549 914.6501 1236.1569 914.37805 1254.2938C 913.3511 1322.6769 888.28406 1361.5098 840.74805 1368.3578C 836.13806 1369.0217 826.51807 1371.2828 819.36804 1373.3818C 761.41205 1390.3969 699.58203 1399.4198 614.86804 1403.2249C 546.168 1406.3098 526.2991 1406.6208 491.86804 1405.1469L491.86804 1405.1469L491.868 1405.147zM255.863 1301.718C 243.526 1251.416 236.31001 1227.535 227.632 1208.2941C 218.34201 1187.6981 216.23201 1184.9701 217.379 1195.0441C 222.653 1241.348 235.36299 1284.291 256.051 1325.701C 266.96 1347.536 266.955 1346.947 255.86299 1301.718zM234.238 1335.0441C 237.83801 1321.609 232.08 1293.3491 215.313 1242.1681C 205.74901 1212.9751 198.702 1187.586 197.37401 1177.545C 196.50401 1170.964 195.6 1170.4081 191.85701 1174.151C 185.852 1180.156 187.667 1192.58 201.19101 1238.03C 204.82901 1250.26 208.32101 1264.2101 208.951 1269.03C 212.651 1297.357 231.294 1346.0281 234.238 1335.0441zM573.31604 1186.1211C 591.56305 1174.035 589.168 1138.8071 569.33606 1127.5751C 551.4841 1117.463 541.89606 1139.498 549.4761 1173.218C 552.8761 1188.344 562.2781 1193.432 573.3161 1186.121zM519.52905 1183.4572C 533.13605 1176.4801 537.655 1153.2002 529.129 1134.0022C 520.724 1115.0752 503.86203 1124.6672 500.82404 1150.1042C 500.38403 1153.7843 499.34705 1161.1143 498.51804 1166.3953C 495.54803 1185.3253 503.42004 1191.7173 519.52905 1183.4573zM188.42905 1148.6511C 190.61005 1131.1931 186.08604 1105.9681 171.44905 1053.9811C 167.29805 1039.233 162.51105 1020.1081 160.81206 1011.4811C 155.25606 983.27106 146.84506 969.5251 150.90805 995.29407C 152.88005 1007.80304 164.01205 1064.885 166.41106 1074.7941C 167.74306 1080.2941 169.99405 1094.1681 171.41206 1105.624C 174.94406 1134.154 178.04207 1145.459 184.13507 1152.0441C 187.15508 1155.3081 187.64507 1154.92 188.42908 1148.6511zM489.12906 1116.2952C 499.31506 1110.8002 509.71207 1108.2932 522.2781 1108.3002C 531.94507 1108.3102 539.2351 1109.3032 566.8681 1114.4042C 600.5921 1120.6292 620.4151 1115.9421 618.0751 1102.2982C 612.7751 1071.3882 597.05707 1064.6042 548.7911 1072.3953C 520.63806 1076.9392 500.24908 1077.1533 488.7931 1073.0253C 479.7431 1069.7623 480.2931 1069.7893 473.57608 1072.3022C 449.28607 1081.3903 450.3531 1110.3483 475.2711 1118.2493L475.2711 1118.2493L481.54108 1120.2383C 481.63608 1120.2683 485.0511 1118.4943 489.1291 1116.2953zM419.86606 1052.1611C 496.04007 1034.7062 520.603 939.44916 460.48004 894.6561C 421.71204 865.77313 397.43405 863.67413 336.86804 883.9691C 324.49304 888.1161 313.35205 892.14813 312.11105 892.92914C 307.69705 895.7061 300.86905 905.55414 300.86905 909.1431C 300.86905 910.98615 299.10104 916.87415 296.94205 922.2301C 268.33105 993.19507 341.17606 1070.1931 419.86606 1052.1611zM323.36804 997.64716C 293.40204 993.1722 286.94403 967.65717 309.88004 944.3622C 326.54202 927.4402 345.94302 925.97516 360.18604 940.5632C 388.36804 969.4302 366.05704 1004.02216 323.36804 997.64716zM703.30005 1038.1372C 755.624 1029.3472 788.43207 969.19324 766.8561 921.6072C 716.33307 810.1822 534.8871 863.70917 574.68005 978.29816C 591.69305 1027.2911 638.42804 1049.0342 703.30005 1038.1361zM601.36804 991.8932C 578.04504 986.1502 570.47906 964.8362 582.97705 940.0782C 598.60205 909.1242 632.03503 909.4902 648.52905 940.7942C 658.491 959.7012 656.23303 966.0022 640.07806 964.3742C 625.54803 962.9082 620.78107 964.9852 627.88403 969.6862C 633.06006 973.1112 639.679 979.0722 640.95605 981.4582C 644.94604 988.9132 618.0541 996.0012 601.36804 991.8932zM349.809 579.325C 350.805 578.792 354.426 578.245 357.85498 578.11C 362.87897 577.912 364.22498 577.503 364.77798 576.01C 365.378 574.387 366.83798 574.112 376.416 573.822C 390.81598 573.385 396.52 572.58203 401.36798 570.312C 405.69797 568.28503 447.322 566.658 474.86798 567.439C 523.854 568.82904 631.37 567.424 632.729 565.37604C 634.017 563.437 635.051 563.293 647.739 563.27905C 661.995 563.26306 667.81104 562.1221 670.185 558.87506C 671.395 557.21906 674.811 557.1141 723.423 557.23206C 776.363 557.36206 793.82495 556.52606 796.94696 553.715C 798.037 552.73303 801.03296 552.294 806.63696 552.294C 811.09894 552.294 815.02795 551.844 815.36694 551.294C 815.76294 550.654 830.53296 550.294 856.39197 550.294C 895.34094 550.294 896.83496 550.224 897.83496 548.356C 898.73096 546.682 900.32996 546.346 909.61993 545.88104C 931.72595 544.77606 937.34595 544.155 939.03894 542.63104C 940.33795 541.46204 942.8889 541.19104 950.48596 541.4111C 960.26196 541.69604 960.26196 541.69604 961.47296 537.24506C 962.139 534.79706 963.587 530.31903 964.68896 527.29407C 966.29 522.90405 966.83496 518.0641 967.38995 503.29407C 968.14996 483.08508 968.85297 476.64105 971.53894 465.29407C 973.69196 456.19406 973.7459 395.51007 971.62195 371.79407C 970.29596 356.99408 942.988 351.43408 922.76996 361.85007C 919.433 363.56906 838.46796 373.16608 775.868 379.26407C 712.57495 385.42807 632.73 391.28406 589.868 392.90607C 578.464 393.33707 571.444 394.03406 569.716 394.90607C 567.446 396.05106 566.29 395.99905 561.716 394.54608C 558.127 393.40607 552.913 392.83908 545.868 392.82108C 535.59796 392.79507 535.37 392.74408 535.44995 390.5211C 535.5579 387.5041 535.68396 387.52008 506.36795 386.84308C 271.84796 381.42807 114.704956 373.34106 29.77295 362.31708C 19.880949 361.03308 18.86795 361.0641 18.86795 362.65308C 18.86795 365.43307 26.96495 373.12506 33.363953 376.42407C 41.417953 380.57507 41.53895 382.39407 33.855953 383.79407C 25.619953 385.29407 25.867954 384.32208 29.101954 402.41806C 42.07395 475.01407 61.14595 491.44806 101.40895 464.72305C 124.56495 449.35306 272.94397 433.43304 370.86798 435.81305C 387.676 436.22104 399.26498 436.04706 404.86798 435.30106C 409.54297 434.67807 415.93298 433.93304 419.067 433.64505C 422.202 433.35706 425.29398 432.48505 425.939 431.70804C 426.585 430.93002 428.829 430.29404 430.925 430.29404C 433.02197 430.29404 436.00497 429.77405 437.55298 429.13803C 448.15298 424.78403 528.868 423.11203 528.868 427.24603C 528.868 427.97205 524.71497 431.93002 515.07996 440.38803C 512.829 442.36502 501.17197 451.36005 489.17694 460.37802C 470.98795 474.053 458.83893 483.493 453.36694 488.20303C 452.81696 488.67603 446.80396 494.98602 440.00293 502.22302C 412.03293 531.99005 382.82593 552.47504 357.72394 559.929C 354.21393 560.97205 352.79092 561.995 351.98895 564.055C 350.63696 567.52496 346.27496 575.287 344.90796 576.65497C 342.00195 579.56 345.65295 581.55 349.80896 579.32495zM104.868 286.438C 104.868 285.417 106.375 282.60397 108.217995 280.188C 112.841995 274.121 114.868 269.922 114.868 266.40298C 114.868 262.49298 113.534996 262.99597 137.485 257.878C 191.069 246.428 214.02 243.48499 255.04199 242.80399C 471.418 239.21098 534.928 237.22598 603.699 231.90399C 621.199 230.551 621.167 230.54199 625.972 238.12C 636.359 254.497 606.95 265.263 561.368 261.768C 556.96796 261.43 536.04297 261.02402 514.868 260.865C 476.36798 260.57498 476.36798 260.57498 455.46097 256.365C 424.94196 250.21999 416.00497 250.57599 407.21896 258.291C 403.09796 261.909 404.41595 261.896 394.53796 258.41397C 369.56598 249.61197 338.67197 249.07297 288.86798 256.57098C 272.093 259.09598 252.51797 261.658 245.36798 262.26398C 208.21898 265.41397 173.38098 271.852 128.68898 283.82498C 110.10898 288.80298 104.86798 289.378 104.86798 286.438z" stroke="none" fill="#28A8DD" fill-rule="nonzero" />
	<g>
	</g>
    <path d="M491.868 1405.147C 375.358 1400.162 294.35303 1384.667 229.70502 1355.0029C 220.26802 1350.673 221.68402 1353.5709 211.50702 1317.7489C 193.78102 1255.3589 180.30902 1198.8309 165.87602 1126.294C 158.55902 1089.523 155.13303 1074.151 138.23602 1002.29395C 107.91702 873.35394 96.40202 814.06696 89.776024 752.79395C 87.92203 735.6439 91.369026 714.6389 96.956024 709.0529C 100.60303 705.4049 101.08302 698.5039 97.89603 695.5349C 96.439026 694.17694 95.68503 691.54694 95.00103 685.4409C 94.47103 680.6989 93.43603 676.46094 92.57103 675.4889C 90.65303 673.3309 89.90803 666.99786 89.05403 645.6239C 88.67703 636.17993 88.006035 628.0939 87.56403 627.6529C 86.59904 626.6929 84.90403 629.11487 84.88403 631.48486C 84.77603 643.2969 75.950035 620.75684 70.84603 595.63885C 57.594032 530.4219 35.84603 465.61487 40.84803 506.25385C 42.60803 520.55084 45.85203 534.6069 55.164032 568.2938C 66.104034 607.8678 71.08803 635.8888 68.86403 645.31384C 65.68403 658.78186 45.13803 577.8978 33.297028 505.29382L33.297028 505.29382L23.270027 443.79382C 17.662027 409.38382 12.446027 383.5418 5.3180275 354.86383C -1.8159723 326.15784 -1.6139727 321.50082 7.2510276 310.21082C 25.526028 286.93683 79.15403 268.8438 84.95103 283.99582C 88.925026 294.38083 77.21403 301.57483 45.368027 308.3128C 17.767027 314.1528 15.214027 318.32782 30.198027 333.1258C 45.178024 347.9198 132.06502 361.14178 234.86803 364.2718C 416.786 369.80978 532.30804 371.2728 564.86804 368.4498C 597.03 365.6618 598.965 365.6798 604.34204 368.8318C 609.13605 371.64078 609.13605 371.64078 615.252 370.1218C 621.372 368.6018 622.839 368.6398 644.169 370.8768C 648.812 371.3638 651.046 371.0478 655.366 369.2948C 660.158 367.3498 661.189 367.2458 664.56604 368.3688C 671.572 370.6988 738.34705 370.0268 761.86804 367.3888C 827.27405 360.05478 904.69806 342.1958 930.44507 328.5048C 933.4751 326.8928 953.38806 322.0658 966.36804 319.79678C 978.83105 317.61877 986.8851 315.69778 992.86804 313.47778C 998.36804 311.43777 998.36804 311.43777 999.01404 320.11578C 1001.887 358.69778 997.59204 420.9588 989.86206 452.79376C 987.8351 461.14377 985.44904 474.46677 981.89404 497.29376C 980.73804 504.71875 979.2991 511.77676 978.69604 512.9778C 978.093 514.1798 977.87305 516.2038 978.20605 517.47577C 978.538 518.7488 977.70306 528.7908 976.3511 539.79175C 969.2331 597.67474 964.7511 656.37976 957.87805 781.79376C 951.79504 892.78876 948.31805 942.8768 943.30005 991.79376C 941.94604 1004.9938 940.17505 1024.7937 939.3641 1035.7937C 935.29205 1091.0217 929.15405 1142.2987 918.7181 1208.2937C 915.15106 1230.8547 914.6501 1236.1567 914.37805 1254.2937C 913.3511 1322.6768 888.28406 1361.5098 840.74805 1368.3577C 836.13806 1369.0216 826.51807 1371.2827 819.36804 1373.3817C 761.41205 1390.3967 699.58203 1399.4197 614.86804 1403.2247C 546.168 1406.3097 526.2991 1406.6207 491.86804 1405.1467L491.86804 1405.1467L491.868 1405.147zM255.863 1301.718C 243.526 1251.416 236.31001 1227.535 227.632 1208.2941C 218.34201 1187.6981 216.23201 1184.9701 217.379 1195.0441C 222.653 1241.348 235.36299 1284.291 256.051 1325.701C 266.96 1347.536 266.955 1346.947 255.86299 1301.718zM234.238 1335.0441C 237.83801 1321.609 232.08 1293.3491 215.313 1242.1681C 205.74901 1212.9751 198.702 1187.586 197.37401 1177.545C 196.50401 1170.964 195.6 1170.4081 191.85701 1174.151C 185.852 1180.156 187.667 1192.58 201.19101 1238.03C 204.82901 1250.26 208.32101 1264.2101 208.951 1269.03C 212.651 1297.357 231.294 1346.0281 234.238 1335.0441zM573.31604 1186.1211C 591.56305 1174.035 589.168 1138.8071 569.33606 1127.5751C 551.4841 1117.463 541.89606 1139.498 549.4761 1173.218C 552.8761 1188.344 562.2781 1193.432 573.3161 1186.121zM519.52905 1183.4572C 533.13605 1176.4801 537.655 1153.2002 529.129 1134.0022C 520.724 1115.0752 503.86203 1124.6672 500.82404 1150.1042C 500.38403 1153.7843 499.34705 1161.1143 498.51804 1166.3953C 495.54803 1185.3253 503.42004 1191.7173 519.52905 1183.4573zM188.42905 1148.6511C 190.61005 1131.1931 186.08604 1105.9681 171.44905 1053.9811C 167.29805 1039.233 162.51105 1020.1081 160.81206 1011.4811C 155.25606 983.27106 146.84506 969.5251 150.90805 995.29407C 152.88005 1007.80304 164.01205 1064.885 166.41106 1074.7941C 167.74306 1080.2941 169.99405 1094.1681 171.41206 1105.624C 174.94406 1134.154 178.04207 1145.459 184.13507 1152.0441C 187.15508 1155.3081 187.64507 1154.92 188.42908 1148.6511zM489.12906 1116.2952C 499.31506 1110.8002 509.71207 1108.2932 522.2781 1108.3002C 531.94507 1108.3102 539.2351 1109.3032 566.8681 1114.4042C 600.5921 1120.6292 620.4151 1115.9421 618.0751 1102.2982C 612.7751 1071.3882 597.05707 1064.6042 548.7911 1072.3953C 520.63806 1076.9392 500.24908 1077.1533 488.7931 1073.0253C 479.7431 1069.7623 480.2931 1069.7893 473.57608 1072.3022C 449.28607 1081.3903 450.3531 1110.3483 475.2711 1118.2493L475.2711 1118.2493L481.54108 1120.2383C 481.63608 1120.2683 485.0511 1118.4943 489.1291 1116.2953zM419.86606 1052.1611C 496.04007 1034.7062 520.603 939.44916 460.48004 894.6561C 420.72903 865.0401 395.39005 863.36115 330.65204 886.0521C 317.07404 890.81213 310.61404 892.64014 309.90204 891.9281C 309.19003 891.2161 308.86804 891.4331 308.86804 892.6251C 308.86804 893.5781 308.23105 894.60114 307.45206 894.90015C 304.49805 896.03314 301.14005 902.68317 300.94305 907.79016C 300.82306 910.89417 299.28705 916.4142 296.88306 922.37616C 268.33005 993.19617 341.27005 1070.1711 419.86606 1052.1611zM323.36804 997.64716C 293.40204 993.1722 286.94403 967.65717 309.88004 944.3622C 326.54202 927.4402 345.94302 925.97516 360.18604 940.5632C 388.36804 969.4302 366.05704 1004.02216 323.36804 997.64716zM703.30005 1038.1372C 755.624 1029.3472 788.43207 969.19324 766.8561 921.6072C 716.33307 810.1822 534.8871 863.70917 574.68005 978.29816C 591.69305 1027.2911 638.42804 1049.0342 703.30005 1038.1361zM601.36804 991.8932C 578.04504 986.1502 570.47906 964.8362 582.97705 940.0782C 598.60205 909.1242 632.03503 909.4902 648.52905 940.7942C 658.491 959.7012 656.23303 966.0022 640.07806 964.3742C 625.54803 962.9082 620.78107 964.9852 627.88403 969.6862C 633.06006 973.1112 639.679 979.0722 640.95605 981.4582C 644.94604 988.9132 618.0541 996.0012 601.36804 991.8932zM543.17706 649.7252C 543.9131 647.1472 543.5641 645.8852 540.99304 641.8302C 521.34204 610.8432 543.26904 567.7812 574.31006 576.4002C 587.00806 579.92523 587.0511 586.93823 574.54407 614.27423C 562.7311 640.09625 563.6371 644.79425 580.4261 644.79425C 592.3131 644.79425 591.76306 645.6163 592.87506 626.18524C 595.73303 576.24524 610.7911 559.3942 642.86804 570.2432C 651.19305 573.0592 651.335 573.2262 653.848 583.14923C 663.489 621.21625 676.637 632.01624 711.36804 630.39923C 736.004 629.2512 741.4841 624.02924 750.918 592.71625C 758.94806 566.05725 764.51404 559.52423 781.12805 557.25323C 785.11005 556.70825 790.39307 555.8402 792.86804 555.3222C 803.36304 553.12823 813.7601 554.6742 816.48706 558.8352C 818.80707 562.3772 820.17004 560.7852 819.6291 555.1652C 819.1611 550.29425 819.1611 550.29425 857.97906 550.29425C 895.3581 550.29425 896.83606 550.2222 897.8351 548.35626C 898.7311 546.68225 900.3301 546.34625 909.62006 545.8813C 931.7261 544.7763 937.34607 544.1553 939.03906 542.6313C 940.3381 541.4623 942.88904 541.1913 950.4861 541.4113C 960.2621 541.6963 960.2621 541.6963 961.4731 537.2453C 962.1391 534.7973 963.5871 530.3193 964.6891 527.2943C 966.2901 522.9043 966.8351 518.06433 967.3901 503.2943C 968.1501 483.08533 968.8531 476.6413 971.53906 465.2943C 973.6921 456.1943 973.74603 395.5103 971.6221 371.7943C 970.2961 356.99432 942.9881 351.43433 922.7701 361.8503C 919.4331 363.5693 838.4681 373.16632 775.8681 379.2643C 712.5751 385.4283 632.7301 391.2843 589.8681 392.9063C 578.4641 393.3373 571.4441 394.0343 569.7161 394.9063C 567.4461 396.0513 566.2901 395.9993 561.7161 394.54633C 558.12714 393.4063 552.91315 392.83932 545.8681 392.82132C 535.5981 392.79532 535.3701 392.74432 535.4501 390.52133C 535.55804 387.50433 535.6841 387.52032 506.36807 386.84332C 271.84808 381.4283 114.70508 373.3413 29.773071 362.31732C 19.881071 361.03333 18.868073 361.06433 18.868073 362.65332C 18.868073 365.43332 26.965073 373.1253 33.364075 376.42432C 41.418076 380.57532 41.539074 382.39432 33.856075 383.7943C 25.620075 385.2943 25.868076 384.32233 29.102076 402.4183C 42.074074 475.0143 61.146072 491.4483 101.40907 464.7233C 120.56908 452.0063 197.93307 441.59628 308.99207 436.7923C 397.52707 432.9623 377.66205 438.5873 261.36807 450.27728C 204.08208 456.03528 177.15408 459.75427 149.36807 465.74728C 143.31807 467.05127 135.20807 468.3483 131.34607 468.62927C 97.70607 471.07428 65.58607 511.58728 82.47107 530.27625C 87.46107 535.80023 94.68107 538.2902 108.49607 539.2512C 114.61607 539.67725 120.04807 540.2882 120.56607 540.6082C 121.08507 540.9282 127.55207 542.2962 134.93806 543.6482C 150.67006 546.5282 153.87807 547.6142 154.58107 550.3062C 155.05507 552.1192 155.96107 552.2942 164.86307 552.2942C 173.72307 552.2942 174.75507 552.4912 176.04306 554.4312C 177.22806 556.2172 178.72305 556.64923 185.12706 557.0612C 190.91206 557.4312 193.20706 558.0112 194.48506 559.4232C 195.57106 560.6232 197.53506 561.2942 199.96407 561.2942C 202.04607 561.2942 204.02806 561.7442 204.36807 562.2942C 204.70807 562.8442 207.29308 563.2942 210.11208 563.2942C 214.05307 563.2942 215.79207 563.8142 217.63208 565.5442C 219.92007 567.69617 220.89207 567.80817 239.85808 568.11816C 257.93207 568.41315 259.84708 568.61316 261.4351 570.36816C 263.2471 572.3702 272.8681 573.25116 272.8681 571.41516C 272.8681 567.91113 290.1301 564.99713 312.3681 564.74713C 328.31412 564.56714 334.2901 564.10016 341.8481 562.43915C 354.4081 559.67914 354.82312 560.3201 347.91312 571.7941C 346.2571 574.5441 344.46912 577.77014 343.94113 578.96313C 343.41113 580.1561 341.75113 581.73114 340.24915 582.46313C 338.74814 583.1951 335.73514 586.41516 333.55414 589.61816C 330.53613 594.0522 328.36914 596.02014 324.47913 597.86017C 307.6971 605.7972 294.0761 619.2942 302.84714 619.2942C 305.09714 619.2942 308.01312 619.99817 309.32715 620.8592C 311.49414 622.2792 311.99615 622.2792 314.74216 620.8592C 316.40717 619.9992 318.40216 619.2942 319.17615 619.2942C 319.95013 619.2942 322.31116 616.4822 324.42215 613.0442C 331.07214 602.21716 358.73416 576.5382 362.28217 577.8992C 363.31915 578.2972 364.12915 577.7632 364.65918 576.32916C 365.40717 574.30914 366.24017 574.12915 376.41617 573.81213C 389.31516 573.40814 397.94318 572.43414 399.44717 571.21014C 400.09918 570.6801 403.18817 571.36115 407.25217 572.93115C 418.81418 577.40015 419.65918 582.38715 409.74518 587.64813C 392.21518 596.95215 389.24817 617.0831 403.08817 632.8071C 415.01517 646.3571 435.05215 643.63715 423.71017 630.0081C 402.08917 604.02814 417.23618 582.3031 462.87018 573.8421C 491.9622 568.4481 534.6462 577.6791 526.79016 587.6651C 519.97217 596.3341 519.97614 608.4171 526.80817 636.2691C 528.49115 643.1301 529.86816 649.7891 529.86816 651.0671C 529.86816 655.1911 541.9642 653.9721 543.1772 649.7251zM689.75006 613.9132C 660.76605 603.5562 661.10004 571.5672 690.1841 572.4082C 698.3011 572.6432 700.06506 572.3642 705.3681 570.0082C 726.0531 560.81616 745.4981 575.93616 739.4901 596.54016C 735.95514 608.66315 728.89014 613.2272 711.8681 614.38416C 696.1681 615.4512 693.9201 615.4042 689.7501 613.9142zM104.868 286.438C 104.868 285.417 106.375 282.60397 108.217995 280.188C 112.841995 274.121 114.868 269.922 114.868 266.40298C 114.868 262.49298 113.534996 262.99597 137.485 257.878C 191.069 246.428 214.02 243.48499 255.04199 242.80399C 471.418 239.21098 534.928 237.22598 603.699 231.90399C 621.199 230.551 621.167 230.54199 625.972 238.12C 636.359 254.497 606.95 265.263 561.368 261.768C 556.96796 261.43 536.04297 261.02402 514.868 260.865C 476.36798 260.57498 476.36798 260.57498 455.46097 256.365C 424.94196 250.21999 416.00497 250.57599 407.21896 258.291C 403.09796 261.909 404.41595 261.896 394.53796 258.41397C 369.56598 249.61197 338.67197 249.07297 288.86798 256.57098C 272.093 259.09598 252.51797 261.658 245.36798 262.26398C 208.21898 265.41397 173.38098 271.852 128.68898 283.82498C 110.10898 288.80298 104.86798 289.378 104.86798 286.438z" stroke="none" fill="#3698A6" fill-rule="nonzero" />
	<g>
	</g>
    <path d="M510.368 1405.66C 378.781 1398.614 316.138 1388.265 250.86801 1362.7891C 222.479 1351.7091 222.40501 1351.659 219.505 1342.1421C 201.925 1284.4521 183.589 1209.722 168.265 1133.3121C 159.351 1088.8711 156.275 1075.0292 138.45999 999.2351C 93.26799 806.96313 81.899994 727.9931 96.94899 710.8551C 100.64099 706.6491 101.14199 698.5591 97.89699 695.5351C 96.43899 694.1771 95.68499 691.5471 95.00099 685.4411C 94.47099 680.6991 93.43599 676.4611 92.57099 675.4891C 90.649994 673.3271 89.90599 666.9861 89.05399 645.50507C 88.51899 632.01605 88.048996 628.01904 86.91599 627.32104C 84.87599 626.064 83.87299 626.96906 83.83599 630.103C 83.72699 639.323 75.58799 615.013 70.84299 591.294C 56.288986 518.541 30.552986 453.211 41.45099 516.682C 43.244987 527.126 48.49199 548.02203 56.230988 575.53503C 62.85299 599.075 66.56099 617.00006 67.762985 631.294C 71.59399 676.842 47.132988 585.314 34.356987 506.294C 16.848988 398.01102 11.891987 372.412 2.2119865 340.294C -1.9680133 326.428 0.028986454 319.17902 11.254987 307.44702C 34.877987 282.76202 88.372986 269.01703 84.44799 288.64203C 82.82799 296.74304 72.10299 301.84503 44.92599 307.44302C 16.81299 313.234 13.965992 318.07303 29.58599 333.50702C 41.89399 345.669 109.093994 358.37402 186.86798 363.243C 201.33098 364.14902 218.22998 364.72302 306.86798 367.323C 426.19098 370.822 536.47095 371.723 564.368 369.427C 596.81 366.757 600.548 366.746 605.091 369.299C 608.741 371.351 609.661 371.479 613.771 370.504C 618.158 369.464 621.536 369.615 645.00397 371.909C 649.719 372.37 651.54 372.035 656.13995 369.859C 660.85 367.63 662.0499 367.42102 664.50397 368.39902C 670.131 370.64203 739.27795 369.92703 761.868 367.39102C 827.316 360.04602 904.69995 342.195 930.44495 328.505C 933.475 326.893 953.38794 322.066 966.3679 319.797C 979.0029 317.589 986.98395 315.699 992.1649 313.689C 1000.9379 310.285 1003.0149 356.711 996.3269 406.729C 992.6719 434.063 991.8579 439.361 989.94293 448.294C 978.8599 499.898 969.31494 602.487 960.31195 766.794C 953.77496 886.083 950.62994 930.26404 944.329 991.294C 943.279 1001.469 942.14496 1014.06903 941.80896 1019.294C 938.855 1065.362 932.23193 1120.861 920.77496 1195.55C 917.22 1218.7261 916.47797 1225.81 916.949 1232.05C 921.797 1296.2301 892.175 1344.0231 842.80096 1351.688C 837.85095 1352.457 825.87994 1355.384 816.199 1358.194C 767.284 1372.39 711.792 1380.8629 638.80096 1385.28C 591.55194 1388.14 527.396 1390.3881 513.80096 1389.66L513.80096 1389.66L510.368 1405.66zM506.03302 1391.53C 509.70303 1387.859 498.863 1386.112 451.868 1382.8C 440.59302 1382.005 425.743 1380.6841 418.868 1379.865C 381.307 1375.391 351.545 1375.135 362.558 1379.381C 382.52002 1387.077 500.49603 1397.066 506.03302 1391.5289zM265.86804 1339.92C 265.86804 1337.336 248.01404 1265.823 243.49203 1250.2941C 235.14903 1221.6431 220.33504 1186.2941 216.67203 1186.2941C 213.24503 1186.2941 221.74603 1234.937 229.95203 1262.2941C 240.77203 1298.3611 265.86804 1352.602 265.86804 1339.92zM235 1335.712C 238.47 1319.687 233.441 1294.525 216.33301 1242.2941C 206.929 1213.5841 199.77 1187.937 198.32701 1177.7941C 197.404 1171.305 196.434 1170.0791 193.34001 1171.489C 184.40901 1175.558 185.78801 1189.84 199.49501 1235.225C 203.05501 1247.011 206.656 1261.186 207.49901 1266.725C 212.899 1302.228 231.919 1349.9409 234.99901 1335.7119zM572.982 1187.437C 588.91797 1177.33 591.706 1154.2 579.14 1136.337C 558.302 1106.7151 536.86 1135.878 549.312 1176.907C 553.083 1189.3309 563.02203 1193.7529 572.982 1187.437zM519.529 1184.451C 536.851 1175.5441 539.758 1141.5331 524.56396 1125.5441C 515.48395 1115.989 502.15497 1129.8021 499.75497 1151.2551C 499.248 1155.7852 498.40298 1161.3591 497.87497 1163.6421C 493.16898 1184.029 502.64398 1193.134 519.529 1184.4521zM189.28299 1148.7141C 191.60799 1133.6721 186.73499 1105.4631 173.80798 1059.1261C 168.84598 1041.3431 163.22998 1019.0171 161.32599 1009.5121C 156.69798 986.4081 148.86798 970.7301 148.86798 984.5691C 148.86798 991.5551 159.96498 1051.957 165.35298 1074.2941C 166.74498 1080.0691 169.02998 1094.019 170.42899 1105.2941C 174.14099 1135.2141 176.499 1144.166 182.51898 1151.2001C 187.04099 1156.482 188.14499 1156.077 189.28299 1148.7141zM489.246 1116.2961C 507.071 1106.5132 522.023 1105.9321 561.368 1113.4901C 613.48096 1123.5011 634.34296 1108.3961 608.344 1079.4781C 597.697 1067.6372 586.56396 1066.3551 547.868 1072.5161C 522.047 1076.6261 499.79398 1076.9731 490.36798 1073.4102C 478.89697 1069.0752 471.688 1070.5822 462.83798 1079.1642C 447.70398 1093.8402 457.826 1115.9252 481.66498 1120.2402C 481.82797 1120.2703 485.24 1118.4952 489.24597 1116.2963zM421.094 1052.8892C 432.09198 1050.0991 434.889 1048.8011 452.19 1038.4591C 509.534 1004.1791 509.633 921.0871 452.368 888.0551C 448.518 885.8341 442.893 882.55914 439.868 880.7771C 412.396 864.5951 386.00302 865.4731 332.868 884.3351C 323.243 887.7521 314.108 890.5201 312.56802 890.4861C 310.49203 890.4411 309.53003 891.0541 308.84302 892.8591C 308.333 894.1991 307.53302 895.29407 307.06302 895.29407C 304.812 895.29407 299.868 904.23706 299.868 908.30707C 299.868 910.8611 298.329 916.31006 295.92102 922.2831C 267.11603 993.72705 342.841 1072.739 421.09402 1052.889zM320.81 996.287C 294.236 991.786 289.199 967.771 310.171 945.57196C 326.38998 928.40497 344.56198 926.7529 358.899 941.14197C 388.13898 970.488 365.133 1003.79395 320.809 996.287zM704.88403 1038.795C 768.40405 1026.161 794.17004 956.322 755.59406 901.34705C 696.9681 817.7991 552.65405 866.387 569.91907 963.86005C 580.2391 1022.12805 635.21704 1052.6521 704.88403 1038.795zM602.275 991.26306C 574.543 985.7651 569.46204 951.7861 592.85004 928.2391C 613.47705 907.47205 642.79706 919.44604 652.348 952.53906C 655.32404 962.84607 653.47504 964.2831 638.202 963.53406C 620.588 962.66907 619.187 964.2751 630.28705 972.603C 639.08704 979.205 641.71906 982.56305 639.8511 984.81305C 635.27405 990.3301 615.06305 993.7991 602.2751 991.26306zM603.36804 749.83405C 610.51807 749.54004 617.94305 749.0361 619.86804 748.71405C 621.793 748.39404 624.718 747.9761 626.36804 747.788C 628.01807 747.60004 631.39307 747.18805 633.86804 746.872C 636.343 746.556 639.94305 746.099 641.86804 745.856C 643.793 745.61304 646.94305 745.16003 648.86804 744.848C 650.793 744.53705 653.718 744.088 655.36804 743.851C 658.408 743.414 668.41003 741.679 683.86804 738.90704C 750.163 727.017 796.3981 705.655 845.99304 663.999C 847.437 662.786 850.52704 660.219 852.861 658.294C 855.19403 656.369 859.005 652.994 861.331 650.794C 863.65497 648.594 868.595 644.094 872.307 640.794C 876.02 637.494 881.417 632.544 884.3 629.794C 894.623 619.94904 905.68097 609.964 914.988 602.08704C 916.638 600.679 920.108 597.84705 922.698 595.794C 925.998 593.179 927.606 591.075 928.068 588.764C 928.662 585.798 929.03796 585.496 931.81 585.764C 934.23 585.998 935.154 585.54297 936.116 583.643C 936.79004 582.313 938.049 580.827 938.914 580.343C 940.032 579.718 940.488 577.952 940.488 574.249C 940.488 569.802 940.818 568.89105 942.738 568.049C 943.975 567.506 945.12396 566.111 945.289 564.94904C 945.455 563.78705 946.657 562.35004 947.96 561.757C 949.91003 560.86804 950.45404 559.64703 951.03204 554.87C 951.41907 551.675 952.06305 548.612 952.465 548.062C 952.866 547.512 953.669 545.262 954.24805 543.062C 954.82806 540.862 956.205 536.58704 957.30804 533.562C 958.9111 529.169 959.455 524.338 960.0101 509.562C 960.7701 489.35303 961.4731 482.909 964.15906 471.562C 966.3121 462.462 966.366 401.778 964.24207 378.062C 962.9161 363.26202 935.6081 357.70203 915.3901 368.118C 912.0531 369.837 831.0431 379.44 768.4881 385.531C 720.2421 390.229 658.4281 395.06702 614.4881 397.583C 603.7631 398.198 587.7881 399.139 578.9881 399.67502C 558.1431 400.946 554.6031 400.902 552.7341 399.35202C 551.63806 398.44302 547.7991 398.10602 539.74304 398.212C 528.853 398.354 528.33203 398.267 528.81805 396.406C 529.6351 393.28302 526.85803 392.897 498.48807 392.202C 250.11206 386.11 114.95407 379.13098 21.014069 367.54498C 10.534069 366.253 10.488069 366.257 10.488069 368.45398C 10.488069 371.529 18.893068 379.96698 25.425068 383.44797C 32.732067 387.34198 32.941067 388.24197 26.738068 389.08496C 16.852068 390.42795 17.140068 389.11996 21.524067 412.71896C 34.397068 482.01898 56.064068 499.40897 94.839066 471.56097C 106.62206 463.09998 172.55307 451.70398 233.48807 447.597C 260.10306 445.80298 265.06906 445.53897 300.48807 444.033C 341.39807 442.29398 351.25806 442.193 349.92606 443.52298C 348.61404 444.83597 312.40405 449.925 281.98804 453.07098C 192.69304 462.31 180.80804 463.818 148.48804 470.00497C 138.86304 471.84796 126.938034 473.85797 121.98804 474.47296C 68.408035 481.12195 49.98604 542.61694 100.48804 546.24C 118.51604 547.534 146.48804 554.136 146.48804 557.097C 146.48804 558.29 148.41803 558.562 156.86604 558.562C 166.35605 558.562 167.36604 558.745 168.66304 560.69904C 169.84804 562.48505 171.34303 562.91705 177.74704 563.32904C 183.53204 563.69904 185.82704 564.27905 187.10504 565.69104C 188.19104 566.89105 190.15504 567.562 192.58405 567.562C 194.66605 567.562 196.64804 568.012 196.98805 568.562C 197.32805 569.112 199.91306 569.562 202.73206 569.562C 206.67305 569.562 208.41205 570.08203 210.25206 571.812C 212.53806 573.96204 213.51706 574.076 232.31606 574.385C 249.85706 574.67303 252.20505 574.91003 253.98805 576.572C 256.73206 579.129 265.38306 579.667 267.62906 577.421C 271.18304 573.867 286.74606 571.344 304.14008 571.50104C 318.50507 571.63104 334.83707 570.096 341.73807 567.96704C 346.40308 566.528 336.22406 586.59 331.23807 588.66205C 329.72507 589.29004 328.47906 590.3121 328.46808 590.93304C 328.41006 594.455 322.18307 601.73004 317.22507 604.07306C 274.49307 624.25305 273.73608 668.1351 315.64908 695.3821C 342.79907 713.0321 347.8621 716.1061 359.48807 722.0021C 386.86807 735.88806 422.99408 747.1651 452.48807 751.03406C 454.96307 751.3591 458.11307 751.8251 459.48807 752.07104C 462.42706 752.59607 469.95306 753.491 476.98807 754.153C 479.73807 754.412 484.23807 754.851 486.98807 755.129C 489.73807 755.406 496.14008 755.75806 501.21606 755.90906C 506.29108 756.06006 510.64105 756.3821 510.88306 756.62305C 511.46304 757.20306 579.353 756.78705 595.98804 756.103zM105.86804 285.93805C 105.86804 285.19205 107.375046 282.60403 109.21804 280.18805C 113.82504 274.14304 115.86804 269.92404 115.86804 266.45206C 115.86804 264.23206 116.419044 263.37607 118.11804 262.96106C 165.93004 251.27505 213.83005 244.42307 252.36804 243.75606C 487.12103 239.69606 536.75604 238.15106 602.86804 232.84805C 620.455 231.43706 620.783 231.51405 624.93506 238.06105C 635.65704 254.96805 619.41907 260.82404 562.86804 260.44604C 472.53204 259.84103 478.75504 260.13004 455.59805 255.47205C 425.11804 249.34105 415.55505 249.76204 406.21805 257.64505C 403.06604 260.30505 403.06604 260.30505 392.66504 256.82504C 366.82504 248.17804 341.15103 248.01204 285.36804 256.13004C 266.11804 258.93103 244.27405 261.67004 236.82605 262.21603C 210.87904 264.11804 182.64905 269.35605 138.94005 280.37802C 110.73505 287.49002 105.86805 288.308 105.86805 285.93802z" stroke="none" fill="#008ECF" fill-rule="nonzero" />
	<g>
	</g>
    <path d="M510.368 1405.66C 378.781 1398.614 316.138 1388.265 250.86801 1362.7891C 222.479 1351.7091 222.40501 1351.659 219.505 1342.1421C 201.925 1284.4521 183.589 1209.722 168.265 1133.3121C 159.351 1088.8711 156.275 1075.0292 138.45999 999.2351C 93.37999 807.4381 81.87999 727.7431 96.86199 710.9751C 101.83199 705.4121 105.828995 711.9361 110.229996 732.79407C 135.32399 851.7341 176.34 1007.44806 207.03 1100.2941C 218.51 1135.024 216.565 1131.6941 224.954 1130.9901C 233.651 1130.2601 233.791 1130.5621 229.45099 1140.6661C 221.40099 1159.4121 225.374 1168.9061 250.61798 1191.2341C 261.322 1200.7021 260.33298 1203.4801 246.94398 1201.5511C 237.67099 1200.2151 238.29298 1198.9171 241.74998 1212.3982C 243.35799 1218.6661 245.60999 1228.2942 246.75499 1233.7942C 264.365 1318.4182 282.047 1348.4702 318.64697 1355.9772C 431.75397 1379.1782 560.82996 1383.1812 731.48694 1368.7792C 798.5369 1363.1201 850.77094 1342.2852 867.48193 1314.5342C 871.80194 1307.3591 871.9199 1307.6892 864.7819 1306.9432C 853.26294 1305.7393 853.5659 1302.9482 865.7649 1297.8912C 883.8409 1290.3993 889.4829 1284.5052 889.2049 1273.4072C 889.0829 1268.5902 889.7809 1264.6653 891.8829 1258.3433C 899.01685 1236.8853 900.46484 1220.2362 898.8069 1178.7373C 897.4089 1143.7333 897.8319 1129.8353 900.6929 1116.7943C 905.1119 1096.6503 907.47186 1076.5583 911.3799 1025.7943C 914.0299 991.3743 915.9859 972.0063 918.34985 956.7943C 920.57587 942.47534 921.71985 927.20734 923.33386 890.2943C 925.16187 848.4763 926.31885 832.4363 928.92786 812.7943C 932.1719 788.3643 932.7239 786.5343 938.63184 780.6253C 947.09686 772.1603 946.84686 766.2233 937.4478 752.4993C 923.09784 731.5473 923.0878 720.56335 937.4048 707.3673C 942.8868 702.3133 943.0628 694.9673 938.8578 646.7943C 934.4068 595.79834 934.4908 579.0423 939.19476 579.4973C 941.60876 579.7303 942.5348 579.2733 943.4958 577.3753C 944.1698 576.0453 945.4288 574.5593 946.29376 574.0753C 947.41174 573.4503 947.86774 571.6843 947.86774 567.9813C 947.86774 563.5343 948.19775 562.62335 950.11774 561.7813C 951.35474 561.2383 952.5037 559.8433 952.66876 558.68134C 952.8348 557.51935 954.03674 556.08234 955.3398 555.4893C 957.2898 554.60034 957.8338 553.37933 958.4118 548.6023C 958.7988 545.4073 959.4428 542.3443 959.8448 541.7943C 960.2458 541.2443 961.04877 538.9943 961.6278 536.7943C 962.2078 534.5943 963.5848 530.31934 964.6878 527.2943C 966.29083 522.9013 966.8348 518.0703 967.38983 503.2943C 968.14984 483.08533 968.85284 476.6413 971.5388 465.2943C 973.69183 456.1943 973.7458 395.5103 971.6218 371.7943C 970.29584 356.99432 942.98785 351.43433 922.76984 361.8503C 919.43286 363.5693 838.42285 373.1723 775.86786 379.2633C 727.6219 383.9613 665.80786 388.79932 621.86786 391.3153C 611.1429 391.9303 595.16785 392.8713 586.36786 393.40732C 565.5229 394.6783 561.98285 394.6343 560.11383 393.08432C 559.0178 392.17532 555.17883 391.83832 547.1228 391.9443C 536.2328 392.0863 535.7118 391.9993 536.1978 390.1383C 537.01483 387.01532 534.2378 386.6293 505.86783 385.9343C 257.49182 379.8423 122.33383 372.86328 28.39383 361.27728C 17.91383 359.9853 17.867828 359.9893 17.867828 362.18628C 17.867828 365.2613 26.272827 373.69928 32.80483 377.18027C 40.111828 381.07428 40.320827 381.97427 34.11783 382.81726C 24.231829 384.16025 24.519829 382.85226 28.903828 406.45126C 41.77683 475.75128 63.44383 493.14127 102.21883 465.29327C 114.00182 456.83228 179.93283 445.43628 240.86783 441.32928C 267.48282 439.53528 272.44882 439.27127 307.86783 437.7653C 348.77783 436.02628 358.63782 435.9253 357.30582 437.25528C 355.9938 438.56827 319.7838 443.6573 289.3678 446.80328C 200.0728 456.0423 188.1878 457.5503 155.8678 463.73727C 146.2428 465.58026 134.3178 467.59027 129.3678 468.20526C 75.787796 474.85425 57.3658 536.34924 107.8678 539.9723C 116.6188 540.6003 148.8808 546.6953 151.8428 548.2803C 155.2868 550.12427 154.3558 553.16925 149.75081 555.12524C 145.6338 556.8732 145.6338 556.8732 149.82181 559.64526C 153.2518 561.9153 153.79381 562.6783 152.8168 563.8553C 150.99881 566.0453 150.1188 565.8683 120.2468 557.2723C 82.7128 546.47125 74.6178 545.6753 84.866806 553.79425C 92.7188 560.0142 91.68581 562.5823 82.45881 559.78424C 74.131805 557.25726 74.62481 554.75024 78.43181 580.29425C 79.37381 586.61926 80.10681 593.4833 80.05981 595.54724C 80.01181 597.61127 80.63781 602.3372 81.44981 606.04724C 85.23681 623.35126 85.592804 635.36725 82.18181 630.71423C 79.82181 627.49524 74.11981 607.67126 70.84281 591.29425C 56.28881 518.54126 30.55281 453.21124 41.450813 516.68225C 43.244812 527.1262 48.491814 548.0223 56.230812 575.5353C 62.852814 599.07526 66.560814 617.0003 67.76281 631.29425C 71.59381 676.8422 47.132812 585.3143 34.35681 506.29425C 16.848812 398.01126 11.891811 372.41223 2.211811 340.29425C -1.9681888 326.42825 0.028810978 319.17926 11.254811 307.44727C 34.87781 282.76227 88.37281 269.01727 84.447815 288.64227C 82.82781 296.7433 72.10281 301.84528 44.925816 307.44327C 16.812815 313.23425 13.9658165 318.07327 29.585815 333.50726C 41.893814 345.66925 109.09382 358.37427 186.86781 363.24326C 201.33081 364.14926 218.22981 364.72327 306.8678 367.32324C 426.1908 370.82224 536.4708 371.72324 564.3678 369.42725C 596.8098 366.75723 600.5478 366.74625 605.0908 369.29926C 608.74084 371.35126 609.6608 371.47925 613.7708 370.50424C 618.15784 369.46423 621.5358 369.61523 645.0038 371.90924C 649.7188 372.37024 651.5398 372.03525 656.1398 369.85925C 660.8498 367.63025 662.04974 367.42126 664.5038 368.39926C 670.1308 370.64227 739.2778 369.92728 761.8678 367.39127C 827.3158 360.04626 904.6998 342.19525 930.4448 328.50525C 933.47485 326.89325 953.3878 322.06625 966.3678 319.79724C 979.0028 317.58923 986.9838 315.69925 992.1648 313.68924C 1000.9378 310.28525 1003.0148 356.71124 996.3268 406.72925C 992.67175 434.06323 991.8578 439.36124 989.9428 448.29425C 978.8598 499.89825 969.3148 602.48724 960.3118 766.79425C 953.77484 886.08325 950.6298 930.2643 944.32886 991.29425C 943.2789 1001.46924 942.14484 1014.0693 941.80884 1019.29425C 938.85486 1065.3623 932.2318 1120.8612 920.77484 1195.5503C 917.21985 1218.7263 916.47784 1225.8103 916.94885 1232.0503C 921.7969 1296.2303 892.17487 1344.0233 842.80084 1351.6882C 837.8508 1352.4573 825.8798 1355.3843 816.19885 1358.1942C 767.2839 1372.3903 711.7919 1380.8632 638.80084 1385.2803C 591.5518 1388.1403 527.3959 1390.3883 513.80084 1389.6603L513.80084 1389.6603L510.368 1405.66zM506.03302 1391.53C 509.70303 1387.859 498.863 1386.112 451.868 1382.8C 440.59302 1382.005 425.743 1380.6841 418.868 1379.865C 381.307 1375.391 351.545 1375.135 362.558 1379.381C 382.52002 1387.077 500.49603 1397.066 506.03302 1391.5289zM265.86804 1339.92C 265.86804 1337.336 248.01404 1265.823 243.49203 1250.2941C 235.14903 1221.6431 220.33504 1186.2941 216.67203 1186.2941C 213.24503 1186.2941 221.74603 1234.937 229.95203 1262.2941C 240.77203 1298.3611 265.86804 1352.602 265.86804 1339.92zM235 1335.712C 238.47 1319.687 233.441 1294.525 216.33301 1242.2941C 206.929 1213.5841 199.77 1187.937 198.32701 1177.7941C 197.404 1171.305 196.434 1170.0791 193.34001 1171.489C 184.40901 1175.558 185.78801 1189.84 199.49501 1235.225C 203.05501 1247.011 206.656 1261.186 207.49901 1266.725C 212.899 1302.228 231.919 1349.9409 234.99901 1335.7119zM189.283 1148.714C 191.608 1133.672 186.735 1105.463 173.808 1059.126C 168.846 1041.343 163.23 1019.01697 161.326 1009.51196C 156.698 986.40796 148.86801 970.73 148.86801 984.569C 148.86801 991.555 159.96501 1051.957 165.35301 1074.294C 166.74501 1080.069 169.03001 1094.0189 170.42902 1105.294C 174.14102 1135.214 176.49902 1144.1659 182.51901 1151.2C 187.04102 1156.4819 188.14502 1156.0769 189.28302 1148.714zM408.868 1247.661C 407.493 1247.461 402.31802 1246.811 397.368 1246.214C 392.418 1245.618 373.743 1242.222 355.868 1238.668C 318.71802 1231.283 299.626 1228.3319 288.84003 1228.3099C 276.89902 1228.2849 272.97104 1223.037 279.79102 1216.2169C 284.789 1211.2189 294.462 1212.3339 324.38303 1221.3569C 344.88803 1227.542 360.15802 1231.256 369.33304 1232.2899C 373.20303 1232.726 380.86804 1234.0499 386.36804 1235.2329C 394.56805 1236.997 453.02304 1244.294 458.94904 1244.294C 459.87604 1244.294 460.87003 1245.194 461.15805 1246.294C 461.65204 1248.1859 420.03604 1249.2739 408.86804 1247.6609zM503.368 1202.921C 490.02502 1196.641 485.15802 1187.183 482.354 1162.089C 478.56702 1128.195 473.234 1120.637 449.719 1115.846C 444.155 1114.7129 443.318 1096.543 448.326 1085.606C 453.628 1074.023 465.707 1060.684 485.283 1044.794C 490.703 1040.3939 498.033 1033.996 501.569 1030.5769C 509.361 1023.0439 510.43 1022.7589 530.368 1022.9009C 575.134 1023.2189 620.838 1058.5739 634.75195 1103.6489C 638.423 1115.544 638.0239 1116.158 618.368 1128.8589C 593.96796 1144.6249 588.803 1152.6609 591.839 1170.1359C 596.529 1197.1318 584.331 1205.4708 552.26 1197.1909C 530.878 1191.6709 521.07 1192.918 514.11304 1202.039C 511.16003 1205.9109 509.93405 1206.012 503.36804 1202.9209zM572.982 1187.437C 588.91797 1177.33 591.706 1154.2 579.14 1136.337C 558.302 1106.7151 536.86 1135.878 549.312 1176.907C 553.083 1189.3309 563.02203 1193.7529 572.982 1187.437zM519.529 1184.451C 536.851 1175.5441 539.758 1141.5331 524.56396 1125.5441C 515.48395 1115.989 502.15497 1129.8021 499.75497 1151.2551C 499.248 1155.7852 498.40298 1161.3591 497.87497 1163.6421C 493.16898 1184.029 502.64398 1193.134 519.529 1184.4521zM489.246 1116.296C 507.071 1106.5131 522.023 1105.932 561.368 1113.49C 613.48096 1123.501 634.34296 1108.396 608.344 1079.478C 597.697 1067.6371 586.56396 1066.355 547.868 1072.516C 522.047 1076.626 499.79398 1076.973 490.36798 1073.41C 478.89697 1069.0751 471.688 1070.582 462.83798 1079.1641C 447.70398 1093.8401 457.826 1115.925 481.66498 1120.2401C 481.82797 1120.2701 485.24 1118.4951 489.24597 1116.2961zM372.787 1067.284C 302.59998 1055.404 254.68999 977.43604 282.762 920.77606C 294.392 897.3041 305.47998 898.57404 295.921 922.2831C 264.92398 999.1651 360.109 1085.43 434.973 1048.3031C 508.12598 1012.0251 517.50397 925.6271 452.36798 888.0551C 448.51797 885.8341 442.89297 882.55914 439.86798 880.7771C 412.498 864.6551 386.19098 865.4811 333.36798 884.1221C 316.56598 890.05206 314.563 890.64404 312.11798 890.41205C 309.921 890.20404 310.731 888.88605 317.12097 882.26904C 375.83798 821.46704 502.90097 864.9841 510.80096 948.6011C 517.71796 1021.80005 449.68997 1080.2991 372.78696 1067.284zM663.86694 1059.6211C 575.55096 1050.711 522.2399 966.0211 563.6569 900.4261C 618.8089 813.0771 745.8479 824.59607 782.35394 920.2561C 809.46796 991.3091 744.47595 1067.7542 663.8679 1059.6211zM704.8839 1038.795C 768.40393 1026.161 794.1699 956.322 755.59393 901.34705C 696.96796 817.7991 552.65393 866.387 569.91895 963.86005C 580.23895 1022.12805 635.2169 1052.6521 704.8839 1038.795zM602.2749 991.26306C 574.5429 985.7651 569.4619 951.7861 592.8499 928.2391C 613.4769 907.47205 642.79694 919.44604 652.3479 952.53906C 655.3239 962.84607 653.4749 964.2831 638.2019 963.53406C 620.5879 962.66907 619.1869 964.2751 630.2869 972.603C 639.0869 979.205 641.71893 982.56305 639.85095 984.81305C 635.2739 990.3301 615.0629 993.7991 602.27496 991.26306zM320.8099 996.28705C 294.2359 991.7861 289.1989 967.77106 310.1709 945.572C 326.3899 928.405 344.5619 926.75305 358.8989 941.142C 388.1389 970.48804 365.1329 1003.794 320.8089 996.28705zM105.867905 285.93707C 105.867905 285.19208 107.37491 282.60406 109.2179 280.18707C 113.824905 274.14307 115.867905 269.92407 115.867905 266.4521C 115.867905 264.2321 116.41891 263.3761 118.117905 262.9611C 165.9299 251.27509 213.8299 244.4231 252.3679 243.75609C 487.1209 239.69609 536.7559 238.1511 602.8679 232.84808C 620.4549 231.43709 620.7829 231.51408 624.93494 238.06108C 635.6569 254.96808 619.41895 260.8241 562.8679 260.44608C 472.53192 259.84106 478.7549 260.13007 455.59793 255.47208C 425.11792 249.34108 415.55493 249.76207 406.21793 257.64508C 403.06592 260.30508 403.06592 260.30508 392.66492 256.82507C 366.82492 248.17807 341.1509 248.01207 285.36792 256.13007C 266.11792 258.93106 244.27393 261.67007 236.82593 262.21606C 210.87892 264.11807 182.64893 269.35608 138.93993 280.37805C 110.734924 287.49005 105.86793 288.30804 105.86793 285.93805z" stroke="none" fill="#1B6F95" fill-rule="nonzero" />
	<g>
	</g>
    <path d="M508.868 1405.303C 378.096 1398.085 313.094 1387.093 248.639 1361.298C 222.341 1350.773 222.806 1351.083 220.06201 1342.294C 204.45901 1292.3209 184.41501 1210.466 168.31201 1130.96C 158.93802 1084.6759 155.50801 1069.2899 137.73201 993.79395C 93.68201 806.70795 80.47601 710.79395 98.770004 710.79395C 103.100006 710.79395 104.37501 714.496 112.37601 750.29395C 144.61801 894.5559 180.013 1027.146 208.81702 1111.562C 216.97401 1135.468 215.74701 1133.658 223.38501 1133.045C 231.48901 1132.395 231.42201 1132.2471 227.29102 1141.615C 219.96301 1158.229 224.50102 1169.564 246.445 1189.45C 258.798 1200.6439 258.75702 1201.9309 246.108 1200.0879C 236.093 1198.6279 236.255 1198.466 238.753 1207.4548C 239.875 1211.4908 243.07501 1225.1438 245.865 1237.7938C 264.496 1322.2698 281.351 1350.0438 318.65002 1357.7239C 429.812 1380.6149 569.307 1384.4469 741.86804 1369.3489C 801.78107 1364.1069 856.74805 1339.9589 870.353 1312.9039C 873.351 1306.9409 873.22003 1306.694 866.62305 1305.8689C 856.28107 1304.5769 856.418 1303.8029 867.86804 1298.8699C 884.981 1291.4979 890.30005 1285.8708 890.49805 1274.9319C 890.5881 1269.9598 891.56805 1264.8179 893.68506 1258.2069C 900.418 1237.1869 902.00104 1217.0259 900.07605 1176.794C 898.611 1146.174 898.97906 1133.844 901.7651 1120.267C 906.5091 1097.14 908.87506 1076.432 913.41907 1018.29395C 914.81604 1000.41895 917.26904 975.8939 918.8711 963.79395C 921.9381 940.61395 923.43207 923.5919 924.3561 901.29395C 926.95807 838.4539 928.86206 816.01697 933.4731 793.8649C 934.7261 787.84894 935.5591 786.2559 939.80707 781.76495C 949.16205 771.8729 948.84607 766.72296 937.8591 750.061C 924.8371 730.311 924.83606 723.22797 937.8531 708.995C 943.9131 702.371 944.26807 690.611 939.8991 641.351C 936.6601 604.833 936.6451 581.081 939.85913 580.308C 941.2301 579.97797 942.88513 578.638 943.53613 577.332C 944.1881 576.02496 945.42914 574.55896 946.2941 574.07495C 947.3881 573.46295 947.8681 571.71594 947.8681 568.342C 947.8681 563.85 948.0901 563.412 950.8681 562.444C 952.5181 561.86896 953.8681 560.68994 953.8681 559.824C 953.8681 558.959 954.9361 557.764 956.2421 557.16895C 959.0941 555.86896 961.39215 549.6619 960.55914 545.5009C 959.95416 542.4729 961.24817 536.7769 964.6951 527.29395C 966.28815 522.9119 966.83514 518.03394 967.39014 503.29395C 968.15015 483.08496 968.85315 476.64093 971.53815 465.29395C 973.69214 456.19394 973.74615 395.50995 971.62213 371.79395C 970.29614 356.99396 942.9871 351.43396 922.77014 361.84995C 919.43317 363.56894 838.46814 373.16595 775.86816 379.26395C 712.7162 385.41394 633.07715 391.25894 589.86816 392.91394C 580.24316 393.28293 571.52216 393.88794 570.48816 394.25894C 569.45514 394.62994 566.3052 394.29694 563.48816 393.51895C 554.08215 390.91895 550.41516 390.45795 543.61816 391.02295C 537.1802 391.55795 536.86816 391.48294 536.86816 389.40796C 536.86816 386.10196 546.46814 386.56796 379.86816 381.77496C 227.77417 377.39996 135.72316 372.26495 56.368164 363.72897C 14.283165 359.20297 14.778164 359.17596 18.836163 365.74197C 21.646162 370.28897 26.838161 374.73798 32.94216 377.83197C 38.967163 380.88498 38.65216 381.84097 31.319162 382.75696C 24.106163 383.65796 24.187162 383.17294 27.838161 403.45996C 40.996162 476.57697 60.808163 493.30096 101.95717 466.02795C 115.58417 456.99594 176.55118 446.41296 241.36717 441.82794C 281.94418 438.95795 349.09717 436.39795 347.72015 437.77493C 346.35416 439.14093 308.42416 443.73993 252.86816 449.27493C 204.30817 454.11493 173.29016 458.45193 151.36816 463.46893C 146.41817 464.60092 138.46616 465.87692 133.69817 466.30295C 75.41217 471.51196 53.19317 536.97095 108.26317 541.23395C 114.37117 541.707 120.04317 542.36194 120.868164 542.68994C 121.69316 543.01794 128.29117 544.3759 135.53116 545.70795C 154.16116 549.13696 156.08916 550.55597 147.25816 554.34094C 141.88116 556.64594 141.88116 556.63196 147.11816 560.01196C 153.85316 564.36 149.44716 563.99 131.35216 558.68896C 80.858154 543.897 70.09016 542.81195 82.48216 553.76495C 88.33116 558.93494 88.032166 559.7089 80.98516 557.644C 77.30516 556.565 75.35516 556.407 74.63416 557.128C 73.533165 558.22797 76.09716 578.094 83.368164 624.794C 85.84717 640.72003 76.47016 617.13403 72.81316 598.245C 61.407166 539.335 43.366165 483.206 38.414165 491.219C 36.110165 494.947 42.801167 529.161 52.912167 565.365C 63.216167 602.255 67.868164 625.071 67.868164 638.718C 67.868164 661.518 45.575165 572.198 34.943165 506.794L34.943165 506.794L25.430164 448.294C 19.000164 408.766 14.378164 385.242 8.333164 361.294C 2.481164 338.111 2.7331643 338.989 1.507164 337.43C -2.478836 332.363 1.782164 318.43 10.291164 308.703C 30.916164 285.126 83.868164 270.216 83.868164 287.98502C 83.868164 295.82202 72.63616 301.19 43.368164 307.341C 15.931164 313.108 13.515163 317.923 29.704165 334.574C 34.924164 339.943 37.063164 340.75 61.868164 346.717C 111.67616 358.69702 162.81816 363.907 253.86816 366.276C 275.59317 366.841 308.21817 367.763 326.36816 368.326C 420.07816 371.231 525.63617 372.12997 555.86816 370.28C 594.3622 367.926 601.56415 367.853 605.8282 369.776C 609.29517 371.339 610.3822 371.41 614.2582 370.325C 616.70715 369.639 619.2652 369.42102 619.94415 369.841C 620.62213 370.26102 625.27014 370.976 630.27313 371.431C 635.27515 371.886 641.48816 372.536 644.0791 372.874C 648.9381 373.509 656.6001 371.447 659.9781 368.596C 661.2511 367.522 662.1931 367.478 664.4781 368.389C 670.1321 370.642 739.20807 369.935 761.8681 367.39102C 827.3161 360.04602 904.7001 342.195 930.44507 328.505C 933.46106 326.901 953.30505 322.086 966.36804 319.789C 981.29205 317.165 985.35803 316.215 990.67804 314.112C 994.62103 312.553 996.278 312.304 997.116 313.142C 999.893 315.919 1000.42804 372.712 997.848 390.794C 997.299 394.644 995.943 405.219 994.835 414.294C 993.72705 423.36902 990.814 440.694 988.361 452.794C 984.651 471.09802 979.12 503.794 977.281 518.294C 969.128 582.571 963.431 652.881 957.387 763.794C 949.981 899.706 947.297 938.152 940.418 1006.794C 939.096 1019.994 937.72406 1035.519 937.37103 1041.294C 934.89404 1081.8099 928.038 1138.6019 916.82306 1211.5089C 913.49304 1233.163 912.86804 1239.6709 912.86804 1252.7189C 912.86804 1322.0538 887.8851 1360.1998 837.82806 1367.2988C 833.7331 1367.8809 826.16205 1369.7079 821.00305 1371.3599C 767.29706 1388.5638 688.88904 1399.4099 593.86804 1402.7799C 584.793 1403.1019 572.19305 1403.7819 565.86804 1404.2919C 549.17804 1405.6368 523.25806 1406.0969 508.86804 1405.3019L508.86804 1405.3019L508.868 1405.303zM505.527 1392.233C 515.662 1388.38 499.467 1385.383 451.82602 1382.2931C 443.277 1381.738 428.56104 1380.4021 419.12402 1379.3231C 377.721 1374.5911 351.90402 1374.4971 360.52402 1379.1101C 374.816 1386.7592 492.026 1397.3671 505.52704 1392.2341zM266.867 1341.28C 266.867 1323.77 233.084 1212.915 221.235 1191.5441C 208.127 1167.9011 220.56 1241.3081 237.199 1285.7941C 250.06 1320.18 266.868 1351.614 266.868 1341.28zM235.987 1330.853C 236.454 1307.1631 233.669 1294.17 217.325 1243.7941C 205.871 1208.4901 202.83899 1197.8441 199.85199 1182.4281C 197.22699 1168.8871 195.90999 1167.4271 191.01799 1172.6342C 184.40999 1179.6692 185.69499 1190.7651 197.82999 1231.4581C 204.99199 1255.4722 207.15498 1264.3951 208.33499 1274.7942C 210.314 1292.2432 224.26498 1330.4152 231.659 1338.6102C 234.148 1341.3693 235.83899 1338.3373 235.987 1330.8533zM189.261 1153.713C 193.417 1142.881 187.95 1107.827 174.711 1060.427C 165.901 1028.884 162.784 1016.3 160.45 1002.841C 157.918 988.243 150.441 974.761 148.416 981.143C 147.304 984.64703 160.411 1058.409 165.324 1076.294C 166.154 1079.319 167.996 1091.0189 169.41501 1102.294C 174.37401 1141.684 184.15302 1167.022 189.26102 1153.7119zM412.86798 1246.603C 402.722 1245.8351 378.85498 1241.839 354.36798 1236.8091C 323.31198 1230.4291 311.948 1228.602 293.36798 1227.0011C 279.36798 1225.7941 279.36798 1225.7941 279.07397 1222.7941C 278.07397 1212.588 288.67596 1212.5641 322.87097 1222.6941C 348.85696 1230.3911 356.36096 1232.2411 364.36798 1232.9211C 368.218 1233.2482 374.74298 1234.3732 378.86798 1235.4211C 386.90497 1237.4631 406.14798 1240.1971 430.36798 1242.7391C 451.27197 1244.9321 453.85797 1245.3792 451.36798 1246.3632C 449.43497 1247.1272 422.038 1247.2982 412.86798 1246.6031zM503.36798 1201.14C 490.69797 1194.595 486.43997 1185.56 483.40097 1158.777C 481.06998 1138.2369 479.10898 1131.781 473.22598 1125.2689C 468.809 1120.3789 461.603 1116.4939 455.36798 1115.6389C 433.04297 1112.5789 447.378 1078.689 483.86798 1048.2559C 490.74298 1042.5219 499.34897 1035.0459 502.99298 1031.6428C 510.76697 1024.3809 513.121 1023.71783 530.368 1023.9278C 573.347 1024.4518 618.367 1059.3588 632.811 1103.3597C 636.68695 1115.1667 636.888 1114.8698 615.65295 1128.6398C 591.79895 1144.1078 586.55994 1153.7717 590.9459 1174.2208C 595.3629 1194.8168 580.07794 1203.6918 553.8679 1195.7528C 535.2749 1190.1198 519.92395 1191.8888 513.6419 1200.3859C 511.1149 1203.8038 508.8479 1203.9698 503.36792 1201.1399zM569.573 1189.7731C 597.501 1178.103 588.229 1118.3131 559.333 1123.7351C 542.56104 1126.8811 539.716 1177.4471 555.721 1187.9331C 560.913 1191.3351 564.646 1191.831 569.573 1189.7731zM518.831 1185.1351C 537.49097 1177.1201 540.85297 1138.9021 524.184 1124.2671C 516.154 1117.217 502.99603 1128.545 500.39102 1144.753C 500.12302 1146.426 498.99503 1153.2671 497.885 1159.9551C 493.48 1186.508 499.311 1193.5181 518.831 1185.1351zM490.16498 1116.3651C 507.22897 1107.0591 522.258 1106.4171 558.555 1113.4412C 594.841 1120.4631 619.858 1117.4752 619.05096 1106.2162C 618.219 1094.6241 613.219 1082.5662 606.967 1077.0762C 594.975 1066.5471 584.925 1066.0962 534.867 1073.8412C 514.757 1076.9521 494.267 1075.6552 484.607 1070.6592C 478.577 1067.5411 463.92398 1074.7352 458.565 1083.4432C 446.365 1103.2712 469.665 1127.5463 490.165 1116.3662zM376.45297 1066.2551C 301.46298 1054.4641 250.88397 968.13214 287.79797 914.9301C 298.72797 899.1781 302.94098 902.9101 295.55997 921.8061C 264.22397 1002.03406 360.27795 1086.7241 437.88696 1047.2941C 511.66397 1009.81104 516.92694 922.7361 447.71695 884.69006C 443.12494 882.16504 437.11694 878.80505 434.36694 877.2201C 411.32996 863.9551 382.09393 866.2001 328.53894 885.3501C 310.33893 891.8571 309.91095 891.6281 320.61795 881.1101C 359.59195 842.8201 437.19394 848.3031 481.00293 892.4401C 552.1709 964.14215 480.87292 1082.6741 376.45294 1066.2551zM666.868 1058.1571C 583.06696 1051.0411 527.725 974.1211 560.125 909.79407C 610.545 809.6891 753.925 825.26306 785.145 934.23505C 802.753 995.69806 737.421 1064.149 666.86804 1058.157zM682.078 1041.107C 768.383 1043.583 805.735 946.70703 742.347 884.79407C 696.99896 840.5021 606.73096 853.93304 577.949 909.2541C 546.99396 968.75507 595.725 1046.0042 661.368 1041.488C 666.868 1041.11 676.188 1040.938 682.078 1041.108zM599.154 989.8431C 577.684 983.13306 572.084 959.2901 586.675 936.7131C 605.468 907.6371 638.69 914.4001 650.863 949.7801C 655.16296 962.27606 653.823 963.80206 639.41797 962.82007C 621.30194 961.58606 617.86 964.25507 628.118 971.58405C 640.208 980.22406 642.368 983.9501 636.91797 986.76807C 628.774 990.98004 608.16095 992.6581 599.154 989.8431zM327.36798 996.3381C 300.52197 993.71106 291.20898 979.59705 301.938 957.8011C 314.289 932.7141 342.21198 924.5561 358.73798 941.2071C 385.72797 968.4011 367.59198 1000.2751 327.36798 996.3381zM106.42798 286.39105C 106.12098 285.89505 107.877975 282.81805 110.33198 279.55304C 115.10998 273.19705 116.86798 269.52304 116.86798 265.88904C 116.86798 263.71902 118.03198 263.37503 142.11798 258.44205C 210.10599 244.51704 200.39198 245.22505 362.86798 242.33905C 486.78598 240.13805 552.19 237.66905 605.839 233.17105C 620.435 231.94705 624.282 233.70705 626.744 242.73505C 630.786 257.55304 619.026 259.83304 539.86804 259.58005C 472.56805 259.36404 483.28003 260.17206 441.86804 252.18805C 424.53503 248.84705 412.46503 250.55106 406.46304 257.18805C 404.04404 259.86206 403.10004 259.83105 394.72305 256.81006C 379.73505 251.40306 369.16806 249.90405 346.36804 249.94907C 324.52304 249.99207 321.84705 250.26306 274.86804 257.20306C 263.59305 258.86905 248.29305 260.70605 240.86804 261.28708C 208.64703 263.8061 175.24104 270.14407 124.98104 283.27408C 108.51004 287.5771 107.28804 287.78308 106.42804 286.39108z" stroke="none" fill="#0C0E0E" fill-rule="nonzero" />
</g>
</svg>